<?xml version="1.0" encoding="UTF-8" standalone="no"?>
<!-- Created with Inkscape (http://www.inkscape.org/) -->

<svg
   xmlns:dc="http://purl.org/dc/elements/1.1/"
   xmlns:cc="http://creativecommons.org/ns#"
   xmlns:rdf="http://www.w3.org/1999/02/22-rdf-syntax-ns#"
   xmlns:svg="http://www.w3.org/2000/svg"
   xmlns="http://www.w3.org/2000/svg"
   xmlns:sodipodi="http://sodipodi.sourceforge.net/DTD/sodipodi-0.dtd"
   xmlns:inkscape="http://www.inkscape.org/namespaces/inkscape"
   width="261.6571mm"
   height="106.13638mm"
   viewBox="0 0 927.13147 376.07377"
   id="svg4349"
   version="1.1"
   inkscape:version="0.91 r13725"
   sodipodi:docname="bumps.svg">
  <defs
     id="defs4351" />
  <sodipodi:namedview
     id="base"
     pagecolor="#ffffff"
     bordercolor="#666666"
     borderopacity="1.0"
     inkscape:pageopacity="0.0"
     inkscape:pageshadow="2"
     inkscape:zoom="0.35"
     inkscape:cx="122.85145"
     inkscape:cy="205.17975"
     inkscape:document-units="px"
     inkscape:current-layer="layer1"
     showgrid="false"
     fit-margin-top="0"
     fit-margin-left="0"
     fit-margin-right="0"
     fit-margin-bottom="0"
     inkscape:window-width="2238"
     inkscape:window-height="1776"
     inkscape:window-x="0"
     inkscape:window-y="22"
     inkscape:window-maximized="0" />
  <metadata
     id="metadata4354">
    <rdf:RDF>
      <cc:Work
         rdf:about="">
        <dc:format>image/svg+xml</dc:format>
        <dc:type
           rdf:resource="http://purl.org/dc/dcmitype/StillImage" />
        <dc:title></dc:title>
      </cc:Work>
    </rdf:RDF>
  </metadata>
  <g
     inkscape:label="Layer 1"
     inkscape:groupmode="layer"
     id="layer1"
     transform="translate(236.42288,-361.46818)">
    <g
       style="display:inline"
       id="g4667"
       transform="translate(786.21451,-587.27775)">
      <path
         sodipodi:nodetypes="sssss"
         inkscape:connector-curvature="0"
         id="path4624"
         d="m -281.70276,1069.2525 c -16.03489,60.8061 -49.11627,126.7604 -102.14286,118.2143 -51.52156,-8.3035 -110.87471,-55.2866 -102.14286,-118.2143 8.64418,-62.2959 53.71412,-114.26801 102.14286,-118.21411 58.46547,-4.7641 120.27069,49.47131 102.14286,118.21411 z"
         style="fill:#dfa8ae;fill-opacity:1;stroke:#bd848f;stroke-width:4;stroke-miterlimit:4;stroke-dasharray:none;stroke-opacity:1" />
      <ellipse
         transform="matrix(0.907124,0.42086346,-0.42086346,0.907124,0,0)"
         ry="15.714285"
         rx="10.178572"
         cy="1077.7708"
         cx="67.152573"
         id="path4629"
         style="fill:#85685d;fill-opacity:1;stroke:none;stroke-width:4;stroke-miterlimit:4;stroke-dasharray:none;stroke-opacity:1" />
      <ellipse
         style="fill:#85685d;fill-opacity:1;stroke:none;stroke-width:4;stroke-miterlimit:4;stroke-dasharray:none;stroke-opacity:1"
         id="ellipse4631"
         cx="399.54007"
         cy="1009.6938"
         rx="10.178572"
         ry="15.714285"
         transform="matrix(0.77130738,0.63646282,-0.63646282,0.77130738,0,0)" />
      <path
         sodipodi:nodetypes="ccsccccccc"
         inkscape:connector-curvature="0"
         id="path4633"
         d="m -429.39091,1072.9526 -1.45089,0.248 c 7.35527,28.552 17.30453,44.0941 29.51563,49.1797 6.10555,2.5428 12.74438,2.4277 19.76758,0.037 7.02319,-2.3905 14.44942,-7.0439 22.23828,-13.6015 l -0.64453,-0.7657 c -7.72741,6.5059 -15.06441,9.0878 -21.91602,11.42 -6.85161,2.3321 -13.20133,2.4285 -19.06055,-0.012 -11.71843,-4.8804 -21.12686,-18.0806 -28.4495,-46.5058 z"
         style="color:#000000;font-style:normal;font-variant:normal;font-weight:normal;font-stretch:normal;font-size:medium;line-height:normal;font-family:sans-serif;text-indent:0;text-align:start;text-decoration:none;text-decoration-line:none;text-decoration-style:solid;text-decoration-color:#000000;letter-spacing:normal;word-spacing:normal;text-transform:none;direction:ltr;block-progression:tb;writing-mode:lr-tb;baseline-shift:baseline;text-anchor:start;white-space:normal;clip-rule:nonzero;display:inline;overflow:visible;visibility:visible;opacity:1;isolation:auto;mix-blend-mode:normal;color-interpolation:sRGB;color-interpolation-filters:linearRGB;solid-color:#000000;solid-opacity:1;fill:#85685d;fill-opacity:1;fill-rule:evenodd;stroke:none;stroke-width:1px;stroke-linecap:butt;stroke-linejoin:miter;stroke-miterlimit:4;stroke-dasharray:none;stroke-dashoffset:0;stroke-opacity:1;color-rendering:auto;image-rendering:auto;shape-rendering:auto;text-rendering:auto;enable-background:accumulate" />
    </g>
    <g
       style="display:inline"
       id="g4657"
       transform="translate(279.07163,-765.13487)">
      <path
         style="fill:#dfa8ae;fill-opacity:1;stroke:#bd848f;stroke-width:4;stroke-miterlimit:4;stroke-dasharray:none;stroke-opacity:1"
         d="m -56.70276,1290.6811 c -16.03489,60.8061 -84.32498,55.5797 -127.85714,43.9286 -48.66077,-13.0237 -108.01757,-51.0009 -99.28572,-113.9286 8.64418,-62.2959 51.57126,-59.268 100,-63.2141 58.46547,-4.7641 145.27069,64.4713 127.14286,133.2141 z"
         id="path4645"
         inkscape:connector-curvature="0"
         sodipodi:nodetypes="sasss" />
      <ellipse
         style="fill:#85685d;fill-opacity:1;stroke:none;stroke-width:4;stroke-miterlimit:4;stroke-dasharray:none;stroke-opacity:1"
         id="ellipse4647"
         cx="-1207.8185"
         cy="219.36742"
         rx="10.178572"
         ry="15.714285"
         transform="matrix(0.33091638,-0.94366008,0.94366008,0.33091638,0,0)" />
      <ellipse
         transform="matrix(-0.33706203,0.94148244,-0.94148244,-0.33706203,0,0)"
         ry="15.714285"
         rx="10.178572"
         cy="-291.19437"
         cx="1212.2953"
         id="ellipse4649"
         style="fill:#85685d;fill-opacity:1;stroke:none;stroke-width:4;stroke-miterlimit:4;stroke-dasharray:none;stroke-opacity:1" />
      <path
         style="color:#000000;font-style:normal;font-variant:normal;font-weight:normal;font-stretch:normal;font-size:medium;line-height:normal;font-family:sans-serif;text-indent:0;text-align:start;text-decoration:none;text-decoration-line:none;text-decoration-style:solid;text-decoration-color:#000000;letter-spacing:normal;word-spacing:normal;text-transform:none;direction:ltr;block-progression:tb;writing-mode:lr-tb;baseline-shift:baseline;text-anchor:start;white-space:normal;clip-rule:nonzero;display:inline;overflow:visible;visibility:visible;opacity:1;isolation:auto;mix-blend-mode:normal;color-interpolation:sRGB;color-interpolation-filters:linearRGB;solid-color:#000000;solid-opacity:1;fill:#85685d;fill-opacity:1;fill-rule:evenodd;stroke:none;stroke-width:1px;stroke-linecap:butt;stroke-linejoin:miter;stroke-miterlimit:4;stroke-dasharray:none;stroke-dashoffset:0;stroke-opacity:1;color-rendering:auto;image-rendering:auto;shape-rendering:auto;text-rendering:auto;enable-background:accumulate"
         d="m -222.86517,1257.3513 -1.45089,0.248 c 7.35527,28.552 21.96732,28.1527 39.51563,31.1797 5.85229,1.0095 13.31348,1.3645 19.76758,0.037 7.90861,-1.6267 13.18673,-4.6223 22.23828,-9.6015 l -0.64453,-0.7657 c -8.9901,4.2331 -14.19069,6.4276 -21.78975,7.6725 -6.31207,1.0341 -14.27285,0.7683 -19.18682,-0.2645 -11.99604,-2.5214 -31.12686,-0.081 -38.4495,-28.5058 z"
         id="path4651"
         inkscape:connector-curvature="0"
         sodipodi:nodetypes="ccsaccascc" />
    </g>
    <g
       style="display:inline"
       id="g4687"
       transform="matrix(0.82264906,0.56854949,-0.56854949,0.82264906,1293.7434,-481.88902)">
      <path
         sodipodi:nodetypes="sasss"
         inkscape:connector-curvature="0"
         id="path4675"
         d="m 89.588,1219.6549 c 60.00496,18.8123 51.64578,86.79 38.00645,129.7408 -15.24617,48.0108 -55.911011,105.5597 -118.3709515,93.9452 C -52.609337,1431.843 -47.611902,1389.1004 -49.328267,1340.5415 -51.400526,1281.9188 21.750901,1198.3871 89.588,1219.6549 Z"
         style="fill:#dfa8ae;fill-opacity:1;stroke:#bd848f;stroke-width:4;stroke-miterlimit:4;stroke-dasharray:none;stroke-opacity:1" />
      <ellipse
         transform="matrix(0.7276848,-0.68591168,0.68591168,0.7276848,0,0)"
         ry="15.714285"
         rx="10.178572"
         cy="956.5152"
         cx="-867.66473"
         id="ellipse4677"
         style="fill:#85685d;fill-opacity:1;stroke:none;stroke-width:4;stroke-miterlimit:4;stroke-dasharray:none;stroke-opacity:1" />
      <ellipse
         style="fill:#85685d;fill-opacity:1;stroke:none;stroke-width:4;stroke-miterlimit:4;stroke-dasharray:none;stroke-opacity:1"
         id="ellipse4679"
         cx="1315.8398"
         cy="-115.85849"
         rx="10.178572"
         ry="15.714285"
         transform="matrix(-0.02501019,0.9996872,-0.9996872,-0.02501019,0,0)" />
      <path
         sodipodi:nodetypes="ccsaccascc"
         inkscape:connector-curvature="0"
         id="path4681"
         d="m -5.48803,1336.1719 -1.45089,0.248 c 7.35527,28.552 21.96732,28.1527 39.51563,31.1797 5.85229,1.0095 13.31348,1.3645 19.76758,0.037 7.90861,-1.6267 13.18673,-4.6223 22.23828,-9.6015 l -0.64453,-0.7657 c -8.9901,4.2331 -14.19069,6.4276 -21.78975,7.6725 -6.31207,1.0341 -14.27285,0.7683 -19.18682,-0.2645 -11.99604,-2.5214 -31.12686,-0.081 -38.4495,-28.5058 z"
         style="color:#000000;font-style:normal;font-variant:normal;font-weight:normal;font-stretch:normal;font-size:medium;line-height:normal;font-family:sans-serif;text-indent:0;text-align:start;text-decoration:none;text-decoration-line:none;text-decoration-style:solid;text-decoration-color:#000000;letter-spacing:normal;word-spacing:normal;text-transform:none;direction:ltr;block-progression:tb;writing-mode:lr-tb;baseline-shift:baseline;text-anchor:start;white-space:normal;clip-rule:nonzero;display:inline;overflow:visible;visibility:visible;opacity:1;isolation:auto;mix-blend-mode:normal;color-interpolation:sRGB;color-interpolation-filters:linearRGB;solid-color:#000000;solid-opacity:1;fill:#85685d;fill-opacity:1;fill-rule:evenodd;stroke:none;stroke-width:1px;stroke-linecap:butt;stroke-linejoin:miter;stroke-miterlimit:4;stroke-dasharray:none;stroke-dashoffset:0;stroke-opacity:1;color-rendering:auto;image-rendering:auto;shape-rendering:auto;text-rendering:auto;enable-background:accumulate" />
    </g>
    <g
       style="display:inline"
       transform="matrix(0.59951837,-0.800361,0.800361,0.59951837,-1230.1936,-144.44722)"
       id="g4693">
      <path
         style="fill:#dfa8ae;fill-opacity:1;stroke:#bd848f;stroke-width:4;stroke-miterlimit:4;stroke-dasharray:none;stroke-opacity:1"
         d="m 89.588,1219.6549 c 60.00496,18.8123 51.64578,86.79 38.00645,129.7408 -15.24617,48.0108 -55.911011,105.5597 -118.3709515,93.9452 C -52.609337,1431.843 -47.611902,1389.1004 -49.328267,1340.5415 -51.400526,1281.9188 21.750901,1198.3871 89.588,1219.6549 Z"
         id="path4695"
         inkscape:connector-curvature="0"
         sodipodi:nodetypes="sasss" />
      <ellipse
         style="fill:#85685d;fill-opacity:1;stroke:none;stroke-width:4;stroke-miterlimit:4;stroke-dasharray:none;stroke-opacity:1"
         id="ellipse4697"
         cx="-867.66473"
         cy="956.5152"
         rx="10.178572"
         ry="15.714285"
         transform="matrix(0.7276848,-0.68591168,0.68591168,0.7276848,0,0)" />
      <ellipse
         transform="matrix(-0.02501019,0.9996872,-0.9996872,-0.02501019,0,0)"
         ry="15.714285"
         rx="10.178572"
         cy="-115.85849"
         cx="1315.8398"
         id="ellipse4699"
         style="fill:#85685d;fill-opacity:1;stroke:none;stroke-width:4;stroke-miterlimit:4;stroke-dasharray:none;stroke-opacity:1" />
      <path
         style="color:#000000;font-style:normal;font-variant:normal;font-weight:normal;font-stretch:normal;font-size:medium;line-height:normal;font-family:sans-serif;text-indent:0;text-align:start;text-decoration:none;text-decoration-line:none;text-decoration-style:solid;text-decoration-color:#000000;letter-spacing:normal;word-spacing:normal;text-transform:none;direction:ltr;block-progression:tb;writing-mode:lr-tb;baseline-shift:baseline;text-anchor:start;white-space:normal;clip-rule:nonzero;display:inline;overflow:visible;visibility:visible;opacity:1;isolation:auto;mix-blend-mode:normal;color-interpolation:sRGB;color-interpolation-filters:linearRGB;solid-color:#000000;solid-opacity:1;fill:#85685d;fill-opacity:1;fill-rule:evenodd;stroke:none;stroke-width:1px;stroke-linecap:butt;stroke-linejoin:miter;stroke-miterlimit:4;stroke-dasharray:none;stroke-dashoffset:0;stroke-opacity:1;color-rendering:auto;image-rendering:auto;shape-rendering:auto;text-rendering:auto;enable-background:accumulate"
         d="m -5.48803,1336.1719 -1.45089,0.248 c 7.35527,28.552 21.96732,28.1527 39.51563,31.1797 5.85229,1.0095 13.31348,1.3645 19.76758,0.037 7.90861,-1.6267 13.18673,-4.6223 22.23828,-9.6015 l -0.64453,-0.7657 c -8.9901,4.2331 -14.19069,6.4276 -21.78975,7.6725 -6.31207,1.0341 -14.27285,0.7683 -19.18682,-0.2645 -11.99604,-2.5214 -31.12686,-0.081 -38.4495,-28.5058 z"
         id="path4701"
         inkscape:connector-curvature="0"
         sodipodi:nodetypes="ccsaccascc" />
    </g>
  </g>
</svg>
