<?xml version="1.0" encoding="UTF-8" standalone="no"?>
<!-- Created with Inkscape (http://www.inkscape.org/) -->

<svg
   xmlns:dc="http://purl.org/dc/elements/1.1/"
   xmlns:cc="http://creativecommons.org/ns#"
   xmlns:rdf="http://www.w3.org/1999/02/22-rdf-syntax-ns#"
   xmlns:svg="http://www.w3.org/2000/svg"
   xmlns="http://www.w3.org/2000/svg"
   xmlns:sodipodi="http://sodipodi.sourceforge.net/DTD/sodipodi-0.dtd"
   xmlns:inkscape="http://www.inkscape.org/namespaces/inkscape"
   width="313.08218mm"
   height="270.52121mm"
   viewBox="0 0 1109.3463 958.53972"
   id="svg5656"
   version="1.1"
   inkscape:version="0.91 r13725"
   sodipodi:docname="hand-saw.svg">
  <defs
     id="defs5658" />
  <sodipodi:namedview
     id="base"
     pagecolor="#ffffff"
     bordercolor="#666666"
     borderopacity="1.0"
     inkscape:pageopacity="0.0"
     inkscape:pageshadow="2"
     inkscape:zoom="0.98994949"
     inkscape:cx="674.26016"
     inkscape:cy="623.40299"
     inkscape:document-units="px"
     inkscape:current-layer="layer1"
     showgrid="false"
     fit-margin-top="0"
     fit-margin-left="0"
     fit-margin-right="0"
     fit-margin-bottom="0"
     inkscape:window-width="2238"
     inkscape:window-height="1776"
     inkscape:window-x="0"
     inkscape:window-y="22"
     inkscape:window-maximized="0" />
  <metadata
     id="metadata5661">
    <rdf:RDF>
      <cc:Work
         rdf:about="">
        <dc:format>image/svg+xml</dc:format>
        <dc:type
           rdf:resource="http://purl.org/dc/dcmitype/StillImage" />
        <dc:title></dc:title>
      </cc:Work>
    </rdf:RDF>
  </metadata>
  <g
     inkscape:label="Layer 1"
     inkscape:groupmode="layer"
     id="layer1"
     transform="translate(3.244552,24.050539)">
    <g
       id="g6297">
      <path
         sodipodi:nodetypes="sssssssszsasssssassssss"
         inkscape:connector-curvature="0"
         id="path4808"
         d="m 228.2643,793.36008 c 3.6156,2.08489 17.83616,61.21814 33.97225,77.36333 21.04336,21.05524 44.40456,-80.26876 76.50201,-71.9703 20.19678,5.22167 22.42087,37.48525 43.25274,36.38562 55.64194,-2.93712 89.43969,-158.36616 93.97482,-124.66192 9.48958,70.52482 -37.78351,101.14629 -1.17911,83.92315 52.25262,-24.58596 75.95281,-122.63309 135.78501,-158.07309 20.19847,-11.96402 -51.3023,142.34527 -20.16805,112.5865 29.70701,-28.39459 23.67149,-51.14378 63.03736,-88.59757 39.36587,-37.45379 -15.39209,120.36142 18.68782,107.58125 27.32103,-10.24554 39.73681,-57.80406 61.85915,-45.0892 23.80947,13.68452 -16.37808,38.57093 -8.41823,81.95452 5.90526,32.1855 52.60285,-35.06846 88.76715,-41.92133 29.33046,-5.55791 -29.26197,52.71447 -37.05503,81.53174 -6.50628,24.05901 49.94759,-16.65661 73.35335,-19.40211 22.54094,-2.64405 -21.79309,29.68703 -27.39141,62.33359 -4.0986,23.90096 51.26098,-20.75963 71.57969,-7.97263 8.60418,5.41479 0.93458,33.25026 10.06935,28.78845 37.987,-18.5545 28.29581,-27.49662 45.11024,-37.4623 18.78202,-11.13185 6.26813,86.23727 25.51814,51.83377 C 992.71576,891.76219 976.3643,854.5075 974.13566,852.454 962.60727,841.83158 619.69963,587.79331 616.16286,581.73312 612.41563,575.31231 185.5752,768.7437 228.2643,793.36008 Z"
         style="display:inline;fill:none;fill-rule:evenodd;stroke:#82735e;stroke-width:4;stroke-linecap:butt;stroke-linejoin:miter;stroke-miterlimit:4;stroke-dasharray:none;stroke-opacity:1" />
      <g
         transform="translate(2964.6362,-675.61483)"
         id="g4908"
         style="display:inline">
        <ellipse
           transform="matrix(-0.24696604,-0.96902414,0.96902414,-0.24696604,0,0)"
           ry="23.823902"
           rx="39.309437"
           cy="-2602.6101"
           cx="-50.934464"
           id="ellipse4860"
           style="fill:#e5d5c5;fill-opacity:1;stroke:#655740;stroke-width:4;stroke-miterlimit:4;stroke-dasharray:none;stroke-opacity:1" />
        <ellipse
           style="fill:#e5d5c5;fill-opacity:1;stroke:#655740;stroke-width:4;stroke-miterlimit:4;stroke-dasharray:none;stroke-opacity:1"
           id="ellipse4862"
           cx="1479.8204"
           cy="-2231.1077"
           rx="39.309437"
           ry="23.823902"
           transform="matrix(-0.76322113,-0.64613737,0.64613737,-0.76322113,0,0)" />
        <ellipse
           style="fill:#e5d5c5;fill-opacity:1;stroke:#655740;stroke-width:4;stroke-miterlimit:4;stroke-dasharray:none;stroke-opacity:1"
           id="ellipse4864"
           cx="-1360.7644"
           cy="-2177.0569"
           rx="39.309437"
           ry="23.823902"
           transform="matrix(0.27866442,-0.96038854,0.96038854,0.27866442,0,0)" />
        <ellipse
           transform="matrix(0.65582483,-0.7549131,0.7549131,0.65582483,0,0)"
           ry="23.823902"
           rx="39.309437"
           cy="-1369.979"
           cx="-2143.0989"
           id="ellipse4866"
           style="fill:#e5d5c5;fill-opacity:1;stroke:#655740;stroke-width:4;stroke-miterlimit:4;stroke-dasharray:none;stroke-opacity:1" />
        <ellipse
           style="fill:#e5d5c5;fill-opacity:1;stroke:#655740;stroke-width:4;stroke-miterlimit:4;stroke-dasharray:none;stroke-opacity:1"
           id="ellipse4868"
           cx="-2543.6514"
           cy="-70.244965"
           rx="39.309437"
           ry="23.823902"
           transform="matrix(0.94536964,-0.32600036,0.32600036,0.94536964,0,0)" />
        <ellipse
           transform="matrix(0.98126798,-0.19264774,0.19264774,0.98126798,0,0)"
           ry="23.823902"
           rx="39.309437"
           cy="316.51251"
           cx="-2525.7776"
           id="ellipse4870"
           style="fill:#e5d5c5;fill-opacity:1;stroke:#655740;stroke-width:4;stroke-miterlimit:4;stroke-dasharray:none;stroke-opacity:1" />
        <ellipse
           style="fill:#e5d5c5;fill-opacity:1;stroke:#655740;stroke-width:4.00869942;stroke-miterlimit:4;stroke-dasharray:none;stroke-opacity:1"
           id="ellipse4872"
           cx="-2551.2583"
           cy="601.0744"
           rx="38.755661"
           ry="24.269541"
           transform="matrix(0.99528918,-0.0969508,0.18911033,0.98195585,0,0)" />
        <ellipse
           transform="matrix(0.99972918,-0.02327146,0.18654172,0.98244704,0,0)"
           ry="24.603724"
           rx="38.583538"
           cy="830.44623"
           cx="-2582.1926"
           id="ellipse4874"
           style="fill:#e5d5c5;fill-opacity:1;stroke:#655740;stroke-width:4.02723122;stroke-miterlimit:4;stroke-dasharray:none;stroke-opacity:1" />
        <ellipse
           style="fill:#e5d5c5;fill-opacity:1;stroke:#655740;stroke-width:4.02723122;stroke-miterlimit:4;stroke-dasharray:none;stroke-opacity:1"
           id="ellipse4876"
           cx="-2310.3923"
           cy="1624.5869"
           rx="38.583538"
           ry="24.603724"
           transform="matrix(0.95379672,0.30045268,-0.14033513,0.99010406,0,0)" />
        <ellipse
           transform="matrix(0.78563014,0.61869644,-0.48180642,0.87627768,0,0)"
           ry="24.603724"
           rx="38.583538"
           cy="2290.1223"
           cx="-1715.0927"
           id="ellipse4878"
           style="fill:#e5d5c5;fill-opacity:1;stroke:#655740;stroke-width:4.02723122;stroke-miterlimit:4;stroke-dasharray:none;stroke-opacity:1" />
        <ellipse
           style="fill:#e5d5c5;fill-opacity:1;stroke:#655740;stroke-width:4.02723122;stroke-miterlimit:4;stroke-dasharray:none;stroke-opacity:1"
           id="ellipse4880"
           cx="-2196.376"
           cy="-572.86963"
           rx="74.915146"
           ry="47.77145"
           transform="matrix(0.77678396,-0.62976717,0.748383,0.66326683,0,0)" />
        <ellipse
           transform="matrix(0.85305552,-0.52182017,0.65437108,0.75617358,0,0)"
           ry="47.77145"
           rx="74.915146"
           cy="-184.32976"
           cx="-2301.9697"
           id="ellipse4882"
           style="fill:#e5d5c5;fill-opacity:1;stroke:#655740;stroke-width:4.02723122;stroke-miterlimit:4;stroke-dasharray:none;stroke-opacity:1" />
        <ellipse
           style="fill:#e5d5c5;fill-opacity:1;stroke:#655740;stroke-width:4.02723122;stroke-miterlimit:4;stroke-dasharray:none;stroke-opacity:1"
           id="ellipse4884"
           cx="-2348.5247"
           cy="129.216"
           rx="74.915146"
           ry="47.77145"
           transform="matrix(0.90186869,-0.43201026,0.57375884,0.81902429,0,0)" />
        <ellipse
           transform="matrix(0.95721494,-0.2893779,0.44210508,0.89696327,0,0)"
           ry="47.77145"
           rx="74.915146"
           cy="577.59985"
           cx="-2385.1689"
           id="ellipse4886"
           style="fill:#e5d5c5;fill-opacity:1;stroke:#655740;stroke-width:4.02723122;stroke-miterlimit:4;stroke-dasharray:none;stroke-opacity:1" />
        <ellipse
           style="fill:#e5d5c5;fill-opacity:1;stroke:#655740;stroke-width:4.02723122;stroke-miterlimit:4;stroke-dasharray:none;stroke-opacity:1"
           id="ellipse4888"
           cx="-2398.9717"
           cy="389.79608"
           rx="74.915146"
           ry="47.77145"
           transform="matrix(0.91680526,-0.39933459,0.54396762,0.83910621,0,0)" />
        <ellipse
           transform="matrix(0.99032851,-0.13874237,0.29891812,0.95427876,0,0)"
           ry="47.77145"
           rx="74.915146"
           cy="1078.1323"
           cx="-2312.802"
           id="ellipse4890"
           style="fill:#e5d5c5;fill-opacity:1;stroke:#655740;stroke-width:4.02723122;stroke-miterlimit:4;stroke-dasharray:none;stroke-opacity:1" />
        <ellipse
           style="fill:#e5d5c5;fill-opacity:1;stroke:#655740;stroke-width:4.02723122;stroke-miterlimit:4;stroke-dasharray:none;stroke-opacity:1"
           id="ellipse4892"
           cx="-2175.6145"
           cy="1472.8033"
           rx="74.915146"
           ry="47.77145"
           transform="matrix(0.99992733,0.01205561,0.15172322,0.98842302,0,0)" />
        <ellipse
           transform="matrix(0.99992733,0.01205561,0.15172322,0.98842302,0,0)"
           ry="47.77145"
           rx="74.915146"
           cy="1551.4446"
           cx="-2171.3835"
           id="ellipse4894"
           style="fill:#e5d5c5;fill-opacity:1;stroke:#655740;stroke-width:4.02723122;stroke-miterlimit:4;stroke-dasharray:none;stroke-opacity:1" />
        <path
           sodipodi:nodetypes="sscccscscscccccccccccccscsssssssssssccsccssscccsccsccssssscscccscscscccccccsss"
           style="fill:#e5d5c5;fill-opacity:1;fill-rule:evenodd;stroke:#655740;stroke-width:4;stroke-linecap:butt;stroke-linejoin:miter;stroke-miterlimit:4;stroke-dasharray:none;stroke-opacity:1"
           d="m -2505.793,695.18986 c -50.1874,0.61522 -62.0911,92.85349 -61.0351,158.47656 0.5161,32.0719 -14.9786,50.50395 -39.5196,64.04102 -1.6828,-16.66111 -0.6139,-35.74507 11.2657,-64.34571 -20.5398,25.80178 -41.0795,43.70374 -61.6192,61.61914 -18.1828,10.60662 50.7796,-133.88052 24.2442,-97.98437 -7.4365,10.05995 -84.8989,117.91584 -80.8125,120.20898 -5.4132,3.60883 39.3291,-92.41163 28.2832,-89.90429 -12.2089,2.77132 -91.0079,97.42521 -77.7813,109.0957 -23.9023,-16.41192 -4.2174,-38.50818 0,-58.58789 1.7326,-8.24906 -71.0249,106.5804 -68.4199,136.8027 -1.8108,2.1489 -3.5974,4.3503 -5.3594,6.6075 -10.9823,-11.6902 -4.6756,-72.78211 3.0684,-79.77153 -4.1562,-4.19303 -46.1637,89.95333 -45.0742,115.77153 l 3.6582,6.457 c -2.3733,-0.2373 -3.4949,-2.5869 -3.6582,-6.457 l -13.5137,-23.8477 c -5.616,34.7809 -23.2946,69.9783 -4.002,103.9004 -0.9268,2.3839 -1.8481,4.7758 -2.7558,7.1816 -21.4797,-9.0915 -25.9508,-29.3022 -36.6797,-45.4218 -6.87,30.5656 -6.5429,60.6821 8.082,89.9043 -7.839,12.0201 -23.7066,-6.0678 -36.3652,-12.1211 10.7352,23.6253 15.5198,53.1997 35.9531,67.1269 -16.2075,82.1935 -10.2173,162.3509 46.4219,208.1153 45.7174,36.9396 97.7443,34.6815 153.373,14.2929 6.4352,19.1049 16.719,51.2692 28.0332,62.5899 21.0433,21.0552 44.4045,-80.2692 76.502,-71.9707 20.1968,5.2216 22.4221,37.4843 43.2539,36.3847 55.642,-2.9371 89.4395,-158.3664 93.9746,-124.6621 9.4896,70.5248 -37.7841,101.1469 -1.1797,83.9238 52.2527,-24.586 75.953,-122.6342 135.7852,-158.0742 20.1985,-11.964 -51.3023,142.3467 -20.168,112.5879 29.707,-28.3946 23.6712,-51.1438 63.0371,-88.5976 39.3658,-37.4537 -15.3924,120.3602 18.6875,107.58 27.321,-10.2455 39.7371,-57.8027 61.8594,-45.0878 23.8095,13.6845 -16.3779,38.5695 -8.418,81.9531 4.4602,24.3093 32.1915,-8.0971 61.0781,-28.3711 5.2177,8.0142 10.6935,15.9504 16.586,23.6719 -10.7998,15.4127 -22.7255,32.3756 -25.9531,44.3105 -5.0637,18.7244 28.0066,-1.7817 53.955,-13.0918 4.8148,4.4942 9.8774,8.8265 15.2598,12.9414 -8.872,11.7096 -20.5523,27.3391 -23.2519,43.082 -4.0986,23.901 51.2613,-20.7596 71.58,-7.9726 8.6042,5.4148 0.9336,33.2509 10.0684,28.7891 22.4482,-10.9647 28.236,-18.5638 32.6934,-25.0098 6.053,1.0986 12.329,2.0262 18.8496,2.7637 1.4229,0.1609 2.8039,0.2555 4.1523,0.2949 3.4023,22.9736 1.9797,59.4734 14.9336,36.3222 8.0187,-14.3309 8.7401,-30.0785 7.0019,-43.0156 73.9118,-58.748 -90.4402,-485.5133 -212.791,-582.96483 9.4053,-16.43994 19.2062,-36.68673 29.2676,-61.76563 17.2991,-43.1193 -37.1589,-5.57003 -93.2676,41.33985 -42.9657,2.70876 -79.3326,28.90061 -113.0332,64.47661 5.0614,-29.18315 16.1029,-66.13088 30.5352,-84.60357 15.2391,-19.50541 -84.071,5.83271 -118.6934,172.23047 -4.7362,22.7627 -16.8615,-99.9223 -22.2226,-95.459 -54.4579,45.3381 -90.6832,256.13 -101.1797,219.5391 -6.0354,-21.0395 -7.3182,-69.4183 -7.918,-113.4727 -0.8605,-63.197 -67.1959,119.7217 -41.416,149.502 -15.6294,17.4682 -31.0475,-84.2911 -31.3145,-96.9746 -1.382,-65.6623 -46.1961,125.5909 -31.3144,145.4629 -31.3142,-2.6177 -44.1109,-29.354 -53.5391,-60.6094 -12.3766,-29.1929 -25.0054,77.6889 -18.3691,135.3516 -46.2304,23.1165 -85.5723,26.6997 -109.5313,-7.2657 -35.0285,-49.6581 -21.1884,-112.5395 9.959,-171.8066 11.1456,38.7978 37.4398,104.0627 35.1094,54.832 -0.6042,-12.7653 -8.9254,-82.4441 5.0508,-83.8418 0,0 47.78,61.3455 39.3965,24.2422 -2.4848,-10.9968 -11.0791,-62.0389 -14.4121,-90.957 1.7265,-2.1037 3.4509,-4.1919 5.1718,-6.2461 11.7012,28.2915 22.8472,57.69 42.5743,69.9297 -22.4043,-39.826 -12.695,-73.4769 -6.1231,-107.7305 11.375,-8.5965 24.1474,-15.4545 37.8574,-21.123 9.604,18.6664 16.6457,52.5206 21.8047,97.539 3.837,-37.4238 6.5376,-75.2495 16.9531,-110.3515 77.7494,-20.836 168.8668,-23.7695 206.2911,-88.64849 42.239,-73.22578 60.229,-239.12226 -23.2344,-252.53906 -2.6565,-0.42703 -5.2173,-0.61815 -7.6856,-0.58789 z"
           id="path4896"
           inkscape:connector-curvature="0" />
      </g>
      <path
         sodipodi:nodetypes="ccccsccssccsc"
         inkscape:connector-curvature="0"
         id="path4319"
         d="m 102.27,531.61592 c 22.8192,-45.60126 54.5603,-83.12817 87.0003,-119.55703 23.9079,-26.67868 55.87758,-40.59715 93.11636,-50.49345 M 358.69665,242.49365 C 294.66121,277.9236 168.6268,279.74037 104.2688,403.70793 77.7283,454.83077 50.8128,520.92579 37.5922,585.97786 M 238.98446,810.4181 c 131.7049,-49.28653 283.33911,-198.36778 419.15263,-169.12637 127.0017,27.34417 101.1662,225.06884 300.9291,247.66069 9.52919,1.07769 17.37597,-0.59593 23.68323,-4.66526 M 593.70728,345.34468 C 540.90841,401.68946 494.53949,480.64787 439.38729,527.65572 366.41117,589.85542 274.93567,675.12844 201.9605,713.16729"
         style="fill:none;fill-rule:evenodd;stroke:#bbab97;stroke-width:4;stroke-linecap:butt;stroke-linejoin:miter;stroke-miterlimit:4;stroke-dasharray:none;stroke-opacity:1" />
      <path
         sodipodi:nodetypes="cc"
         inkscape:connector-curvature="0"
         id="path6273"
         d="m 709.67061,280.54166 c 25.10415,1.08707 39.43466,2.50099 60.60916,17.67767"
         style="fill:none;fill-rule:evenodd;stroke:#bbab97;stroke-width:4;stroke-linecap:butt;stroke-linejoin:miter;stroke-miterlimit:4;stroke-dasharray:none;stroke-opacity:1" />
    </g>
  </g>
</svg>
