<?xml version="1.0" encoding="UTF-8" standalone="no"?>
<!-- Created with Inkscape (http://www.inkscape.org/) -->

<svg
   xmlns:dc="http://purl.org/dc/elements/1.1/"
   xmlns:cc="http://creativecommons.org/ns#"
   xmlns:rdf="http://www.w3.org/1999/02/22-rdf-syntax-ns#"
   xmlns:svg="http://www.w3.org/2000/svg"
   xmlns="http://www.w3.org/2000/svg"
   xmlns:sodipodi="http://sodipodi.sourceforge.net/DTD/sodipodi-0.dtd"
   xmlns:inkscape="http://www.inkscape.org/namespaces/inkscape"
   width="133.88541mm"
   height="125.0391mm"
   viewBox="0 0 474.39711 443.05193"
   id="svg6350"
   version="1.1"
   inkscape:version="0.91 r13725"
   sodipodi:docname="head.svg">
  <defs
     id="defs6352" />
  <sodipodi:namedview
     id="base"
     pagecolor="#ffffff"
     bordercolor="#666666"
     borderopacity="1.0"
     inkscape:pageopacity="0.0"
     inkscape:pageshadow="2"
     inkscape:zoom="0.35"
     inkscape:cx="-773.51572"
     inkscape:cy="-1229.9026"
     inkscape:document-units="px"
     inkscape:current-layer="layer1"
     showgrid="false"
     fit-margin-top="0"
     fit-margin-left="0"
     fit-margin-right="0"
     fit-margin-bottom="0"
     inkscape:window-width="2238"
     inkscape:window-height="1776"
     inkscape:window-x="0"
     inkscape:window-y="22"
     inkscape:window-maximized="0" />
  <metadata
     id="metadata6355">
    <rdf:RDF>
      <cc:Work
         rdf:about="">
        <dc:format>image/svg+xml</dc:format>
        <dc:type
           rdf:resource="http://purl.org/dc/dcmitype/StillImage" />
        <dc:title></dc:title>
      </cc:Work>
    </rdf:RDF>
  </metadata>
  <g
     inkscape:label="Layer 1"
     inkscape:groupmode="layer"
     id="layer1"
     transform="translate(-659.94429,1140.5923)">
    <g
       transform="translate(488.30391,-1014.7224)"
       style="display:inline"
       id="g4346">
      <path
         id="path4327"
         d="m 378.94141,-82.603516 c 0.37764,7.052714 0.86975,14.169181 1.05468,20.84961 0.16954,6.12409 0.23748,11.942281 0.16407,17.185547 -0.0734,5.243265 -0.28779,9.911315 -0.68164,13.730468 -0.37834,3.668644 -0.49716,7.338394 -0.41993,11.009766 0.0772,3.671372 0.35018,7.344149 0.75391,11.0175781 0.40373,3.6734288 0.93792,7.3466718 1.53906,11.0214844 0.60114,3.6748126 1.26803,7.3498669 1.9375,11.0253905 1.33894,7.351048 2.68568,14.702878 3.52344,22.052734 0.41888,3.674929 0.71058,7.349817 0.81055,11.023438 0.1,3.673621 0.008,7.345936 -0.33985,11.017578 -1.37734,14.530661 -2.7218,28.421912 -3.95898,42.181641 -1.23718,13.759731 -2.3664,27.388711 -3.3086,41.396481 -0.94219,14.00777 -1.69901,28.39514 -2.1914,43.66992 -0.49239,15.27479 -0.71965,31.43728 -0.60742,48.99805 0.0478,7.47569 -0.24648,14.4477 -0.78516,21.04883 -0.53868,6.60113 -1.32324,12.83032 -2.25195,18.82422 -0.92871,5.9939 -2.0027,11.75225 -3.125,17.40625 -1.12231,5.65399 -2.29265,11.20373 -3.41211,16.78515 -0.28616,1.42671 -0.51701,2.90496 -0.79492,4.3379 76.75628,14.60781 159.08162,-1.53073 209.58007,-48.54493 C 640.81894,203.4852 624.42453,74.148615 577.85742,-0.49414062 543.22069,-56.013607 466.307,-91.003661 401.07227,-85.851562 c -7.40888,0.585137 -14.79065,1.747891 -22.13086,3.248046 z"
         style="fill:#d8533f;fill-opacity:1;fill-rule:evenodd;stroke:none;stroke-width:1px;stroke-linecap:butt;stroke-linejoin:miter;stroke-opacity:1"
         inkscape:connector-curvature="0" />
      <path
         inkscape:connector-curvature="0"
         id="path4335"
         d="M 379.95156,-83.613669 C 316.84011,-70.715284 257.6481,-25.148952 226.36757,35.280863 197.77526,90.51739 189.30958,194.07396 231.72499,239.56602 c 35.21309,37.7673 84.40952,61.55866 136.13282,71.40235 0.27791,-1.43294 0.50876,-2.91119 0.79492,-4.3379 1.11946,-5.58142 2.2898,-11.13116 3.41211,-16.78515 1.1223,-5.654 2.19629,-11.41235 3.125,-17.40625 0.92871,-5.9939 1.71327,-12.22309 2.25195,-18.82422 0.53868,-6.60113 0.83293,-13.57314 0.78516,-21.04883 -0.11223,-17.56077 0.11503,-33.72326 0.60742,-48.99805 0.49239,-15.27478 1.24921,-29.66215 2.1914,-43.66992 0.9422,-14.00777 2.07142,-27.63675 3.3086,-41.396484 1.23718,-13.759729 2.58164,-27.65098 3.95898,-42.181641 0.34803,-3.671642 0.43981,-7.343957 0.33985,-11.017578 -0.1,-3.673621 -0.39167,-7.348509 -0.81055,-11.023438 -0.83776,-7.349856 -2.1845,-14.701686 -3.52344,-22.052734 -0.66947,-3.6755231 -1.33636,-7.3505774 -1.9375,-11.02539 -0.60114,-3.6748126 -1.13533,-7.3480556 -1.53906,-11.0214844 -0.40373,-3.6734296 -0.67667,-7.3462066 -0.75391,-11.0175786 -0.0772,-3.671372 0.0416,-7.341122 0.41993,-11.009766 0.39385,-3.819153 0.60822,-8.487203 0.68164,-13.730468 0.0734,-5.243266 0.005,-11.061457 -0.16407,-17.185547 -0.18493,-6.680429 -0.67704,-13.796896 -1.05468,-20.84961 z"
         style="fill:#9cc0c0;fill-opacity:1;fill-rule:evenodd;stroke:none;stroke-width:1px;stroke-linecap:butt;stroke-linejoin:miter;stroke-opacity:1" />
      <path
         sodipodi:nodetypes="ssssssassss"
         inkscape:connector-curvature="0"
         id="path4206"
         d="m 278.57143,38.790775 c -21.31599,28.797602 -49.28571,52.142856 -42.85714,77.857135 1.97254,7.89017 -1.58213,30.82818 -7.11544,46.4383 -3.77302,10.64416 -11.53929,15.9361 -14.35151,27.7533 -6.50457,27.33278 -3.2052,51.81439 -10.31877,52.23698 C 167.85714,245.21935 165,140.21935 180.71429,85.219347 c 8.6697,-30.34394 17.49296,-76.1372626 42.85714,-103.571429 35.81807,-38.741206 94.56612,-59.013911 141.07143,-71.785715 8.85725,-2.432478 23.16851,9.510837 18.57143,20.357143 -9.51664,22.453487 -24.81058,25.012633 -49.76058,47.009337 -18.42377,16.2429763 -42.46259,44.783271 -54.88228,61.562092 z"
         style="fill:#d8533f;fill-opacity:1;fill-rule:evenodd;stroke:none;stroke-width:1px;stroke-linecap:butt;stroke-linejoin:miter;stroke-opacity:1" />
      <g
         transform="translate(182.5,117.5)"
         id="g4223">
        <ellipse
           style="fill:#e5ded6;fill-opacity:1;stroke:none;stroke-width:4;stroke-miterlimit:4;stroke-dasharray:none;stroke-opacity:1"
           id="path4208"
           cx="105.2194"
           cy="-87.024124"
           rx="43.57143"
           ry="31.964285"
           transform="matrix(0.97286243,0.23138431,-0.23138431,0.97286243,0,0)"
           inkscape:transform-center-x="-15.357143"
           inkscape:transform-center-y="61.071429" />
        <g
           id="g4216"
           transform="translate(-99.642861,-196.42857)">
          <ellipse
             style="fill:#e5ded6;fill-opacity:1;stroke:#7f7b72;stroke-width:4;stroke-miterlimit:4;stroke-dasharray:none;stroke-opacity:1"
             id="ellipse4212"
             cx="46.401012"
             cy="282.28876"
             rx="22.415392"
             ry="16.444077"
             transform="matrix(0.64876844,-0.76098588,0.76098588,0.64876844,0,0)"
             inkscape:transform-center-x="-31.571765"
             inkscape:transform-center-y="7.2629048" />
          <ellipse
             inkscape:transform-center-y="3.6857484"
             inkscape:transform-center-x="-16.021901"
             transform="matrix(0.64876844,-0.76098588,0.76098588,0.64876844,0,0)"
             ry="8.344965"
             rx="11.375261"
             cy="283.96811"
             cx="44.312859"
             id="ellipse4214"
             style="fill:#7f7b72;fill-opacity:1;stroke:#7f7b72;stroke-width:2.02990174;stroke-miterlimit:4;stroke-dasharray:none;stroke-opacity:1" />
        </g>
        <path
           style="fill:#d8533f;fill-opacity:1;stroke:none;stroke-width:4;stroke-miterlimit:4;stroke-dasharray:none;stroke-opacity:1"
           d="M 114.07645,-109.0293 A 70.513733,51.729336 13.378586 0 0 52.293248,-72.490234 70.513733,51.729336 13.378586 0 0 108.92411,-5.8476562 70.513733,51.729336 13.378586 0 0 189.49247,-39.857422 70.513733,51.729336 13.378586 0 0 132.86161,-106.5 a 70.513733,51.729336 13.378586 0 0 -18.78516,-2.5293 z m 3.85352,16.052738 a 43.57143,31.964285 13.378586 0 1 11.60937,1.5625 43.57143,31.964285 13.378586 0 1 34.99219,41.179687 43.57143,31.964285 13.378586 0 1 -49.78515,21.015625 43.57143,31.964285 13.378586 0 1 -34.992195,-41.179688 43.57143,31.964285 13.378586 0 1 38.175785,-22.578124 z"
           id="ellipse4210"
           inkscape:connector-curvature="0" />
      </g>
      <g
         transform="translate(304.28571,137.85714)"
         id="g4247">
        <ellipse
           inkscape:transform-center-y="-37.597111"
           inkscape:transform-center-x="50.51751"
           transform="matrix(-0.89995161,0.43598979,-0.43598979,-0.89995161,0,0)"
           ry="31.964285"
           rx="43.57143"
           cy="-30.361494"
           cx="-180.75836"
           id="ellipse4232"
           style="fill:#e5ded6;fill-opacity:1;stroke:none;stroke-width:4;stroke-miterlimit:4;stroke-dasharray:none;stroke-opacity:1" />
        <g
           transform="matrix(0.80423548,0.59431077,-0.59431077,0.80423548,55.969411,-306.96821)"
           id="g4234"
           inkscape:transform-center-x="-12.308701"
           inkscape:transform-center-y="-4.634349">
          <ellipse
             inkscape:transform-center-y="7.2629048"
             inkscape:transform-center-x="-31.571765"
             transform="matrix(0.64876844,-0.76098588,0.76098588,0.64876844,0,0)"
             ry="16.444077"
             rx="22.415392"
             cy="282.28876"
             cx="46.401012"
             id="ellipse4236"
             style="fill:#e5ded6;fill-opacity:1;stroke:#7f7b72;stroke-width:4;stroke-miterlimit:4;stroke-dasharray:none;stroke-opacity:1" />
          <ellipse
             style="fill:#7f7b72;fill-opacity:1;stroke:#7f7b72;stroke-width:2.02990174;stroke-miterlimit:4;stroke-dasharray:none;stroke-opacity:1"
             id="ellipse4238"
             cx="44.312859"
             cy="283.96811"
             rx="11.375261"
             ry="8.344965"
             transform="matrix(0.64876844,-0.76098588,0.76098588,0.64876844,0,0)"
             inkscape:transform-center-x="-16.021901"
             inkscape:transform-center-y="3.6857484" />
        </g>
        <path
           inkscape:connector-curvature="0"
           id="path4240"
           d="m 213.24207,-19.076565 a 51.729336,70.513733 64.151708 0 0 24.75318,-67.37617 51.729336,70.513733 64.151708 0 0 -86.01326,-15.811575 51.729336,70.513733 64.151708 0 0 -40.90458,77.296435 51.729336,70.513733 64.151708 0 0 86.01326,15.8115905 51.729336,70.513733 64.151708 0 0 16.1514,-9.9202805 z m -13.13676,-9.99829 a 31.964285,43.57143 64.151708 0 1 -9.98129,6.1313 31.964285,43.57143 64.151708 0 1 -53.14836,-9.77095 31.964285,43.57143 64.151708 0 1 25.27583,-47.76348 31.964285,43.57143 64.151708 0 1 53.14837,9.77094 31.964285,43.57143 64.151708 0 1 -15.29455,41.63219 z"
           style="fill:#9cc0c0;fill-opacity:1;stroke:none;stroke-width:4;stroke-miterlimit:4;stroke-dasharray:none;stroke-opacity:1" />
      </g>
      <path
         sodipodi:nodetypes="sssas"
         inkscape:connector-curvature="0"
         id="path4254"
         d="m 286.78572,125.21934 c 15.40775,-12.83699 68.26177,53.93829 125.03749,54.41858 60.51948,0.51197 112.38672,-31.42452 128.53393,-22.63286 19.24313,10.47729 -126.83051,85.65347 -190.06563,63.97497 -36.23159,-12.42105 -72.53831,-88.23524 -63.50579,-95.76069 z"
         style="fill:#d8533f;fill-opacity:1;fill-rule:evenodd;stroke:none;stroke-width:1px;stroke-linecap:butt;stroke-linejoin:miter;stroke-opacity:1" />
      <path
         sodipodi:nodetypes="scaacsaaas"
         inkscape:connector-curvature="0"
         id="path4256"
         d="M 613.1626,280.85819 C 597.99135,309.76057 611.40227,191.06776 601.04076,163.42796 596.49508,155.85182 559.80289,70.020699 522.75394,37.158896 510.80774,26.562814 492.5133,25.947864 479.31738,16.955845 c -36.21409,-24.6771566 -86.62057,-78.53936 -95.20687,-90.66119 -1.03179,-7.772012 -14.75563,-24.140004 -9.59645,-33.587575 6.00194,-10.99085 57.44269,-21.80726 86.62058,-17.67766 43.47002,6.1524 86.4776,29.243311 116.67262,61.114222 35.38981,37.354014 56.74705,89.489345 64.14468,140.411203 9.88729,68.059495 2.40722,144.871555 -28.78934,204.303345 z"
         style="fill:#9cc0c0;fill-opacity:1;fill-rule:evenodd;stroke:none;stroke-width:1px;stroke-linecap:butt;stroke-linejoin:miter;stroke-opacity:1" />
      <path
         id="path4344"
         d="m 378.43164,172.46094 c -43.05522,-16.94984 -79.32846,-57.50497 -91.64648,-47.24219 -9.03252,7.52545 27.27427,83.34067 63.50586,95.76172 7.88337,2.70261 17.05569,3.89735 27.0332,3.90234 0.005,-14.0503 0.095,-27.73999 0.5,-40.30469 0.13662,-4.23831 0.43186,-8.00476 0.60742,-12.11718 z"
         style="fill:#d8533f;fill-opacity:1;fill-rule:evenodd;stroke:none;stroke-width:1px;stroke-linecap:butt;stroke-linejoin:miter;stroke-opacity:1"
         inkscape:connector-curvature="0" />
      <path
         id="path4339"
         d="m 378.43164,172.46094 c -0.17556,4.11242 -0.4708,7.87887 -0.60742,12.11718 -0.40503,12.5647 -0.49478,26.25439 -0.5,40.30469 70.05534,0.0351 179.87734,-58.70584 163.0332,-67.87695 -16.14721,-8.79166 -68.01567,23.14478 -128.53515,22.63281 -11.38529,-0.0963 -22.59109,-2.9262 -33.39063,-7.17773 z"
         style="fill:#9cc0c0;fill-opacity:1;fill-rule:evenodd;stroke:none;stroke-width:1px;stroke-linecap:butt;stroke-linejoin:miter;stroke-opacity:1"
         inkscape:connector-curvature="0" />
    </g>
  </g>
</svg>
