<?xml version="1.0" encoding="UTF-8" standalone="no"?>
<!-- Created with Inkscape (http://www.inkscape.org/) -->

<svg
   xmlns:dc="http://purl.org/dc/elements/1.1/"
   xmlns:cc="http://creativecommons.org/ns#"
   xmlns:rdf="http://www.w3.org/1999/02/22-rdf-syntax-ns#"
   xmlns:svg="http://www.w3.org/2000/svg"
   xmlns="http://www.w3.org/2000/svg"
   xmlns:sodipodi="http://sodipodi.sourceforge.net/DTD/sodipodi-0.dtd"
   xmlns:inkscape="http://www.inkscape.org/namespaces/inkscape"
   width="340.82538mm"
   height="371.4198mm"
   viewBox="0 0 1207.649 1316.0544"
   id="svg7016"
   version="1.1"
   inkscape:version="0.91 r13725"
   sodipodi:docname="player.svg">
  <defs
     id="defs7018" />
  <sodipodi:namedview
     id="base"
     pagecolor="#ffffff"
     bordercolor="#666666"
     borderopacity="1.0"
     inkscape:pageopacity="0.0"
     inkscape:pageshadow="2"
     inkscape:zoom="0.35"
     inkscape:cx="-64.03263"
     inkscape:cy="1209.4558"
     inkscape:document-units="px"
     inkscape:current-layer="layer1"
     showgrid="false"
     fit-margin-top="0"
     fit-margin-left="0"
     fit-margin-right="0"
     fit-margin-bottom="0"
     inkscape:window-width="2238"
     inkscape:window-height="1776"
     inkscape:window-x="0"
     inkscape:window-y="22"
     inkscape:window-maximized="0" />
  <metadata
     id="metadata7021">
    <rdf:RDF>
      <cc:Work
         rdf:about="">
        <dc:format>image/svg+xml</dc:format>
        <dc:type
           rdf:resource="http://purl.org/dc/dcmitype/StillImage" />
        <dc:title></dc:title>
      </cc:Work>
    </rdf:RDF>
  </metadata>
  <g
     inkscape:label="Layer 1"
     inkscape:groupmode="layer"
     id="layer1"
     transform="translate(49.538799,-425.76357)">
    <g
       transform="translate(124.10006,551.6335)"
       style="display:inline"
       id="g4594">
      <path
         sodipodi:nodetypes="ssaaasss"
         inkscape:connector-curvature="0"
         id="path4488"
         d="m 284.28571,742.3622 c -31.59605,43.23352 5.11778,85.29232 -156.42856,217.14286 -60.991294,49.77974 -196.293503,-13.47641 -223.571436,58.57144 -17.255954,45.5773 37.805824,99.7004 81.428572,121.4286 68.73217,34.235 160.936084,20.7035 230.000004,-12.8572 60.92037,-29.6034 117.41202,-86.9032 134.28571,-152.49998 25.8141,-100.3527 54.77327,-149.03975 41.42857,-240.35714 -6.4268,-43.97843 -43.9046,-77.95878 -107.14286,8.57142 z"
         style="fill:#d8533f;fill-opacity:1;fill-rule:evenodd;stroke:none;stroke-width:1px;stroke-linecap:butt;stroke-linejoin:miter;stroke-opacity:1" />
      <ellipse
         transform="matrix(0.01468336,-0.99989219,0.99989219,0.01468336,0,0)"
         ry="23.823902"
         rx="39.309437"
         cy="0.099503249"
         cx="-983.14148"
         id="path4408-3"
         style="fill:#9cc0c0;fill-opacity:1;stroke:none;stroke-width:4;stroke-miterlimit:4;stroke-dasharray:none;stroke-opacity:1" />
      <ellipse
         transform="matrix(-0.27994521,-0.96001598,0.96001598,-0.27994521,0,0)"
         ry="23.823902"
         rx="39.309437"
         cy="-183.03552"
         cx="-954.27814"
         id="path4408-3-2"
         style="display:inline;fill:#9cc0c0;fill-opacity:1;stroke:none;stroke-width:4;stroke-miterlimit:4;stroke-dasharray:none;stroke-opacity:1" />
    </g>
    <g
       style="display:inline"
       id="g4610"
       transform="matrix(0.98994424,0.1414581,-0.1414581,0.98994424,284.14356,509.38145)">
      <path
         style="fill:#9cc0c0;fill-opacity:1;fill-rule:evenodd;stroke:none;stroke-width:1px;stroke-linecap:butt;stroke-linejoin:miter;stroke-opacity:1"
         d="m 524.40117,720.93363 c 31.59605,43.23352 -5.11778,85.29232 156.42856,217.14286 60.99129,49.77974 196.2935,-13.47641 223.57144,58.57144 17.25595,45.57727 -37.80583,99.70037 -81.42858,121.42857 -68.73217,34.235 -160.93608,20.7035 -230,-12.8572 -60.92037,-29.6034 -117.41202,-86.9032 -134.28571,-152.49995 -25.8141,-100.3527 -54.77327,-149.03975 -41.42857,-240.35714 6.4268,-43.97843 43.9046,-77.95878 107.14286,8.57142 z"
         id="path4601"
         inkscape:connector-curvature="0"
         sodipodi:nodetypes="ssaaasss" />
      <ellipse
         style="fill:#d8533f;fill-opacity:1;stroke:none;stroke-width:4;stroke-miterlimit:4;stroke-dasharray:none;stroke-opacity:1"
         id="ellipse4603"
         cx="-973.58948"
         cy="-808.81482"
         rx="39.309437"
         ry="23.823902"
         transform="matrix(-0.01468336,-0.99989219,-0.99989219,0.01468336,0,0)" />
      <ellipse
         style="display:inline;fill:#d8533f;fill-opacity:1;stroke:none;stroke-width:4;stroke-miterlimit:4;stroke-dasharray:none;stroke-opacity:1"
         id="ellipse4605"
         cx="-707.31836"
         cy="-953.38904"
         rx="39.309437"
         ry="23.823902"
         transform="matrix(0.27994521,-0.96001598,-0.96001598,-0.27994521,0,0)" />
    </g>
    <g
       style="display:inline"
       id="g4453"
       transform="translate(125.52856,521.6335)">
      <g
         transform="translate(1.0101525,2.0203051)"
         id="g4432">
        <ellipse
           style="fill:#9cc0c0;fill-opacity:1;stroke:none;stroke-width:4;stroke-miterlimit:4;stroke-dasharray:none;stroke-opacity:1"
           id="path4408"
           cx="1023.4863"
           cy="302.55399"
           rx="39.309437"
           ry="23.823902"
           transform="matrix(0.99600074,0.08934497,-0.08934497,0.99600074,0,0)" />
        <ellipse
           transform="matrix(0.97024276,0.24213424,-0.24213424,0.97024276,0,0)"
           ry="23.823902"
           rx="39.309437"
           cy="181.00172"
           cx="1063.4183"
           id="ellipse4410"
           style="fill:#9cc0c0;fill-opacity:1;stroke:none;stroke-width:4;stroke-miterlimit:4;stroke-dasharray:none;stroke-opacity:1" />
        <ellipse
           style="fill:#9cc0c0;fill-opacity:1;stroke:none;stroke-width:4;stroke-miterlimit:4;stroke-dasharray:none;stroke-opacity:1"
           id="ellipse4412"
           cx="1046.4379"
           cy="-208.48409"
           rx="39.309437"
           ry="23.823902"
           transform="matrix(0.79580126,0.60555789,-0.60555789,0.79580126,0,0)" />
        <ellipse
           transform="matrix(0.38836082,0.92150739,-0.92150739,0.38836082,0,0)"
           ry="23.823902"
           rx="39.309437"
           cy="-662.93115"
           cx="806.97443"
           id="ellipse4414"
           style="fill:#9cc0c0;fill-opacity:1;stroke:none;stroke-width:4;stroke-miterlimit:4;stroke-dasharray:none;stroke-opacity:1"
           inkscape:transform-center-x="-21.584386"
           inkscape:transform-center-y="-9.3503727" />
        <ellipse
           inkscape:transform-center-y="16.3874"
           inkscape:transform-center-x="-16.875018"
           style="fill:#9cc0c0;fill-opacity:1;stroke:none;stroke-width:4;stroke-miterlimit:4;stroke-dasharray:none;stroke-opacity:1"
           id="ellipse4416"
           cx="-286.54141"
           cy="-957.28918"
           rx="39.309437"
           ry="23.823902"
           transform="matrix(-0.70376566,0.71043219,-0.71043219,-0.70376566,0,0)" />
      </g>
      <path
         sodipodi:nodetypes="aaaasssssa"
         inkscape:connector-curvature="0"
         id="path4406"
         d="m 528.30978,381.62092 c 20.63521,-39.73265 84.10781,-30.73102 126.37418,-45.4975 33.42327,-11.677 65.26869,-31.75924 100.59686,-34.08048 70.29699,-4.61887 171.70535,-19.74168 207.32276,41.03989 22.02814,37.5913 1.11384,112.86367 -40.52864,124.26798 -53.79801,14.73326 -10.94235,-59.18334 -54.51536,-50.24174 -18.24586,3.74422 -41.88683,-1.71768 -55.73485,-4.00011 -43.1505,-7.11208 -72.00437,-37.86227 -104.62694,-25.95759 C 562.33911,440.01344 658.5899,521.33782 559.052,493.92116 521.63472,483.61497 510.42195,416.06355 528.30978,381.62092 Z"
         style="fill:#d8533f;fill-opacity:1;fill-rule:evenodd;stroke:none;stroke-width:1px;stroke-linecap:butt;stroke-linejoin:miter;stroke-opacity:1" />
    </g>
    <g
       style="display:inline"
       id="g4462"
       transform="translate(159.81426,573.06207)">
      <g
         style="fill:#d8533f;fill-opacity:1"
         id="g4439"
         transform="matrix(-1,0,0,1,822.21845,-30.304576)">
        <ellipse
           transform="matrix(0.99600074,0.08934497,-0.08934497,0.99600074,0,0)"
           ry="23.823902"
           rx="39.309437"
           cy="302.55399"
           cx="1023.4863"
           id="ellipse4441"
           style="fill:#d8533f;fill-opacity:1;stroke:none;stroke-width:4;stroke-miterlimit:4;stroke-dasharray:none;stroke-opacity:1" />
        <ellipse
           style="fill:#d8533f;fill-opacity:1;stroke:none;stroke-width:4;stroke-miterlimit:4;stroke-dasharray:none;stroke-opacity:1"
           id="ellipse4443"
           cx="1063.4183"
           cy="181.00172"
           rx="39.309437"
           ry="23.823902"
           transform="matrix(0.97024276,0.24213424,-0.24213424,0.97024276,0,0)" />
        <ellipse
           transform="matrix(0.79580126,0.60555789,-0.60555789,0.79580126,0,0)"
           ry="23.823902"
           rx="39.309437"
           cy="-208.48409"
           cx="1046.4379"
           id="ellipse4445"
           style="fill:#d8533f;fill-opacity:1;stroke:none;stroke-width:4;stroke-miterlimit:4;stroke-dasharray:none;stroke-opacity:1" />
        <ellipse
           inkscape:transform-center-y="-9.3503727"
           inkscape:transform-center-x="-21.584386"
           style="fill:#d8533f;fill-opacity:1;stroke:none;stroke-width:4;stroke-miterlimit:4;stroke-dasharray:none;stroke-opacity:1"
           id="ellipse4447"
           cx="806.97443"
           cy="-662.93115"
           rx="39.309437"
           ry="23.823902"
           transform="matrix(0.38836082,0.92150739,-0.92150739,0.38836082,0,0)" />
        <ellipse
           transform="matrix(-0.70376566,0.71043219,-0.71043219,-0.70376566,0,0)"
           ry="23.823902"
           rx="39.309437"
           cy="-957.28918"
           cx="-286.54141"
           id="ellipse4449"
           style="fill:#d8533f;fill-opacity:1;stroke:none;stroke-width:4;stroke-miterlimit:4;stroke-dasharray:none;stroke-opacity:1"
           inkscape:transform-center-x="-16.875018"
           inkscape:transform-center-y="16.3874" />
      </g>
      <path
         style="fill:#9cc0c0;fill-opacity:1;fill-rule:evenodd;stroke:none;stroke-width:1px;stroke-linecap:butt;stroke-linejoin:miter;stroke-opacity:1"
         d="m 294.91886,350.30619 c -20.63521,-39.73265 -82.83203,-35.07752 -126.37418,-45.4975 -49.53034,-11.853 -100.690852,-19.9447 -151.609564,-18.92819 -52.802571,1.05412 -141.020866,5.4937 -156.310066,25.8876 -26.13519,34.86111 -28.37444,77.4266 40.528653,124.26798 50.512615,34.33925 10.94235,-59.18334 54.515357,-50.24174 18.24586,3.74422 51.9883558,-12.32428 65.836375,-14.60671 43.1505,-7.11208 60.251945,-20.94409 94.525415,-15.35099 141.32315,23.06257 48.60789,134.18645 148.14579,106.76979 37.41728,-10.30619 48.63005,-77.85761 30.74222,-112.30024 z"
         id="path4451"
         inkscape:connector-curvature="0"
         sodipodi:nodetypes="aaassssssa" />
    </g>
    <g
       transform="translate(124.10006,551.6335)"
       style="display:inline"
       id="g4398">
      <path
         id="path4396"
         d="m 371.23828,289.83008 c -17.30289,-6.43178 -34.57691,-9.81415 -57.66601,-2.46875 -29.49574,9.38357 -58.63908,24.35784 -70.71485,52.85742 -27.61616,65.17587 17.59922,150.20292 37.44141,224.74805 32.4046,121.74083 -23.84926,201.62305 39.70117,178.82422 27.13216,-9.73371 50.22393,-12.8185 70.77148,-12.50196 -0.76164,-1.52811 -1.5732,-2.94906 -2.24414,-4.66797 -1.13953,-2.91944 -2.15191,-6.10455 -3.04492,-9.51953 -0.893,-3.41498 -1.66648,-7.06088 -2.33203,-10.90234 -0.66555,-3.84147 -1.22252,-7.87728 -1.67969,-12.07617 -0.45716,-4.1989 -0.81418,-8.5596 -1.08203,-13.04688 -0.26784,-4.48727 -0.44732,-9.10199 -0.54492,-13.80859 -0.0976,-4.7066 -0.11412,-9.50446 -0.0605,-14.36133 0.10716,-9.71374 0.49826,-19.66003 1.09571,-29.56055 0.59744,-9.90051 1.40076,-19.75614 2.33593,-29.29101 0.93518,-9.53487 2.00074,-18.74844 3.1211,-27.36524 1.12035,-8.6168 2.29624,-16.63689 3.44922,-23.7832 0.48869,-3.02903 0.83718,-6.06231 1.05859,-9.10156 0.22141,-3.03925 0.31651,-6.08438 0.29883,-9.13867 -0.0177,-3.05429 -0.14836,-6.11726 -0.37696,-9.19141 -0.22859,-3.07415 -0.55548,-6.15897 -0.96679,-9.25781 -0.82263,-6.19768 -1.98279,-12.45004 -3.36719,-18.77539 -1.3844,-6.32536 -2.99417,-12.7252 -4.71484,-19.2168 -3.44135,-12.9832 -7.32825,-26.33717 -10.76172,-40.2168 -1.71674,-6.93981 -3.32074,-14.01063 -4.69727,-21.23242 -1.37652,-7.22178 -2.52707,-14.59439 -3.33789,-22.13672 -0.4281,-3.98221 -0.74421,-7.82274 -0.96289,-11.53906 -0.21868,-3.71632 -0.33923,-7.30718 -0.37305,-10.79102 -0.0676,-6.96767 0.20988,-13.50392 0.73438,-19.74218 0.5245,-6.23827 1.2966,-12.17891 2.2168,-17.95508 0.92019,-5.77618 1.98795,-11.38928 3.10742,-16.97071 1.11946,-5.58142 2.2898,-11.13116 3.41211,-16.78515 0.0661,-0.33305 0.11783,-0.6916 0.18359,-1.02539 z"
         style="fill:#9cc0c0;fill-opacity:1;fill-rule:evenodd;stroke:none;stroke-width:1px;stroke-linecap:butt;stroke-linejoin:miter;stroke-opacity:1"
         inkscape:connector-curvature="0" />
      <path
         id="path4388"
         d="m 371.23828,289.83008 c -0.0658,0.33379 -0.11748,0.69234 -0.18359,1.02539 -1.12231,5.65399 -2.29265,11.20373 -3.41211,16.78515 -1.11947,5.58143 -2.18723,11.19453 -3.10742,16.97071 -0.9202,5.77617 -1.6923,11.71681 -2.2168,17.95508 -0.5245,6.23826 -0.80201,12.77451 -0.73438,19.74218 0.0338,3.48384 0.15437,7.0747 0.37305,10.79102 0.21868,3.71632 0.53479,7.55685 0.96289,11.53906 0.81082,7.54233 1.96137,14.91494 3.33789,22.13672 1.37653,7.22179 2.98053,14.29261 4.69727,21.23242 3.43347,13.87963 7.32037,27.2336 10.76172,40.2168 1.72067,6.4916 3.33044,12.89144 4.71484,19.2168 1.3844,6.32535 2.54456,12.57771 3.36719,18.77539 0.41131,3.09884 0.7382,6.18366 0.96679,9.25781 0.2286,3.07415 0.35928,6.13712 0.37696,9.19141 0.0177,3.05429 -0.0774,6.09942 -0.29883,9.13867 -0.22141,3.03925 -0.5699,6.07253 -1.05859,9.10156 -1.15298,7.14631 -2.32887,15.1664 -3.44922,23.7832 -1.12036,8.6168 -2.18592,17.83037 -3.1211,27.36524 -0.93517,9.53487 -1.73849,19.3905 -2.33593,29.29101 -0.59745,9.90052 -0.98855,19.84681 -1.09571,29.56055 -0.0536,4.85687 -0.0371,9.65473 0.0605,14.36133 0.0976,4.7066 0.27708,9.32132 0.54492,13.80859 0.26785,4.48728 0.62487,8.84798 1.08203,13.04688 0.45717,4.19889 1.01414,8.2347 1.67969,12.07617 0.66555,3.84146 1.43903,7.48736 2.33203,10.90234 0.89301,3.41498 1.90539,6.60009 3.04492,9.51953 0.67094,1.71891 1.4825,3.13986 2.24414,4.66797 59.88119,0.9225 97.88877,31.08217 149.22852,12.50196 53.9013,-19.50726 42.78094,-70.2339 63.87891,-160.70704 24.22101,-103.86546 -21.20146,-159.5111 -14.59375,-228.57812 6.03147,-63.0439 16.92317,-58.05238 -46.42774,-45 -18.11898,3.73311 -88.30909,6.30465 -106.90234,2.95117 -26.71759,-4.8188 -45.73312,-15.57039 -64.7168,-22.62695 z"
         style="fill:#d8533f;fill-opacity:1;fill-rule:evenodd;stroke:none;stroke-width:1px;stroke-linecap:butt;stroke-linejoin:miter;stroke-opacity:1"
         inkscape:connector-curvature="0" />
    </g>
    <g
       transform="translate(124.10006,551.6335)"
       style="display:inline"
       id="g4346">
      <path
         id="path4327"
         d="m 378.94141,-82.603516 c 0.37764,7.052714 0.86975,14.169181 1.05468,20.84961 0.16954,6.12409 0.23748,11.942281 0.16407,17.185547 -0.0734,5.243265 -0.28779,9.911315 -0.68164,13.730468 -0.37834,3.668644 -0.49716,7.338394 -0.41993,11.009766 0.0772,3.671372 0.35018,7.344149 0.75391,11.0175781 0.40373,3.6734288 0.93792,7.3466718 1.53906,11.0214844 0.60114,3.6748126 1.26803,7.3498669 1.9375,11.0253905 1.33894,7.351048 2.68568,14.702878 3.52344,22.052734 0.41888,3.674929 0.71058,7.349817 0.81055,11.023438 0.1,3.673621 0.008,7.345936 -0.33985,11.017578 -1.37734,14.530661 -2.7218,28.421912 -3.95898,42.181641 -1.23718,13.759731 -2.3664,27.388711 -3.3086,41.396481 -0.94219,14.00777 -1.69901,28.39514 -2.1914,43.66992 -0.49239,15.27479 -0.71965,31.43728 -0.60742,48.99805 0.0478,7.47569 -0.24648,14.4477 -0.78516,21.04883 -0.53868,6.60113 -1.32324,12.83032 -2.25195,18.82422 -0.92871,5.9939 -2.0027,11.75225 -3.125,17.40625 -1.12231,5.65399 -2.29265,11.20373 -3.41211,16.78515 -0.28616,1.42671 -0.51701,2.90496 -0.79492,4.3379 76.75628,14.60781 159.08162,-1.53073 209.58007,-48.54493 C 640.81894,203.4852 624.42453,74.148615 577.85742,-0.49414062 543.22069,-56.013607 466.307,-91.003661 401.07227,-85.851562 c -7.40888,0.585137 -14.79065,1.747891 -22.13086,3.248046 z"
         style="fill:#d8533f;fill-opacity:1;fill-rule:evenodd;stroke:none;stroke-width:1px;stroke-linecap:butt;stroke-linejoin:miter;stroke-opacity:1"
         inkscape:connector-curvature="0" />
      <path
         inkscape:connector-curvature="0"
         id="path4335"
         d="M 379.95156,-83.613669 C 316.84011,-70.715284 257.6481,-25.148952 226.36757,35.280863 197.77526,90.51739 189.30958,194.07396 231.72499,239.56602 c 35.21309,37.7673 84.40952,61.55866 136.13282,71.40235 0.27791,-1.43294 0.50876,-2.91119 0.79492,-4.3379 1.11946,-5.58142 2.2898,-11.13116 3.41211,-16.78515 1.1223,-5.654 2.19629,-11.41235 3.125,-17.40625 0.92871,-5.9939 1.71327,-12.22309 2.25195,-18.82422 0.53868,-6.60113 0.83293,-13.57314 0.78516,-21.04883 -0.11223,-17.56077 0.11503,-33.72326 0.60742,-48.99805 0.49239,-15.27478 1.24921,-29.66215 2.1914,-43.66992 0.9422,-14.00777 2.07142,-27.63675 3.3086,-41.396484 1.23718,-13.759729 2.58164,-27.65098 3.95898,-42.181641 0.34803,-3.671642 0.43981,-7.343957 0.33985,-11.017578 -0.1,-3.673621 -0.39167,-7.348509 -0.81055,-11.023438 -0.83776,-7.349856 -2.1845,-14.701686 -3.52344,-22.052734 -0.66947,-3.6755231 -1.33636,-7.3505774 -1.9375,-11.02539 -0.60114,-3.6748126 -1.13533,-7.3480556 -1.53906,-11.0214844 -0.40373,-3.6734296 -0.67667,-7.3462066 -0.75391,-11.0175786 -0.0772,-3.671372 0.0416,-7.341122 0.41993,-11.009766 0.39385,-3.819153 0.60822,-8.487203 0.68164,-13.730468 0.0734,-5.243266 0.005,-11.061457 -0.16407,-17.185547 -0.18493,-6.680429 -0.67704,-13.796896 -1.05468,-20.84961 z"
         style="fill:#9cc0c0;fill-opacity:1;fill-rule:evenodd;stroke:none;stroke-width:1px;stroke-linecap:butt;stroke-linejoin:miter;stroke-opacity:1" />
      <path
         sodipodi:nodetypes="ssssssassss"
         inkscape:connector-curvature="0"
         id="path4206"
         d="m 278.57143,38.790775 c -21.31599,28.797602 -49.28571,52.142856 -42.85714,77.857135 1.97254,7.89017 -1.58213,30.82818 -7.11544,46.4383 -3.77302,10.64416 -11.53929,15.9361 -14.35151,27.7533 -6.50457,27.33278 -3.2052,51.81439 -10.31877,52.23698 C 167.85714,245.21935 165,140.21935 180.71429,85.219347 c 8.6697,-30.34394 17.49296,-76.1372626 42.85714,-103.571429 35.81807,-38.741206 94.56612,-59.013911 141.07143,-71.785715 8.85725,-2.432478 23.16851,9.510837 18.57143,20.357143 -9.51664,22.453487 -24.81058,25.012633 -49.76058,47.009337 -18.42377,16.2429763 -42.46259,44.783271 -54.88228,61.562092 z"
         style="fill:#d8533f;fill-opacity:1;fill-rule:evenodd;stroke:none;stroke-width:1px;stroke-linecap:butt;stroke-linejoin:miter;stroke-opacity:1" />
      <g
         transform="translate(182.5,117.5)"
         id="g4223">
        <ellipse
           style="fill:#e5ded6;fill-opacity:1;stroke:none;stroke-width:4;stroke-miterlimit:4;stroke-dasharray:none;stroke-opacity:1"
           id="path4208"
           cx="105.2194"
           cy="-87.024124"
           rx="43.57143"
           ry="31.964285"
           transform="matrix(0.97286243,0.23138431,-0.23138431,0.97286243,0,0)"
           inkscape:transform-center-x="-15.357143"
           inkscape:transform-center-y="61.071429" />
        <g
           id="g4216"
           transform="translate(-99.642861,-196.42857)">
          <ellipse
             style="fill:#e5ded6;fill-opacity:1;stroke:#7f7b72;stroke-width:4;stroke-miterlimit:4;stroke-dasharray:none;stroke-opacity:1"
             id="ellipse4212"
             cx="46.401012"
             cy="282.28876"
             rx="22.415392"
             ry="16.444077"
             transform="matrix(0.64876844,-0.76098588,0.76098588,0.64876844,0,0)"
             inkscape:transform-center-x="-31.571765"
             inkscape:transform-center-y="7.2629048" />
          <ellipse
             inkscape:transform-center-y="3.6857484"
             inkscape:transform-center-x="-16.021901"
             transform="matrix(0.64876844,-0.76098588,0.76098588,0.64876844,0,0)"
             ry="8.344965"
             rx="11.375261"
             cy="283.96811"
             cx="44.312859"
             id="ellipse4214"
             style="fill:#7f7b72;fill-opacity:1;stroke:#7f7b72;stroke-width:2.02990174;stroke-miterlimit:4;stroke-dasharray:none;stroke-opacity:1" />
        </g>
        <path
           style="fill:#d8533f;fill-opacity:1;stroke:none;stroke-width:4;stroke-miterlimit:4;stroke-dasharray:none;stroke-opacity:1"
           d="M 114.07645,-109.0293 A 70.513733,51.729336 13.378586 0 0 52.293248,-72.490234 70.513733,51.729336 13.378586 0 0 108.92411,-5.8476562 70.513733,51.729336 13.378586 0 0 189.49247,-39.857422 70.513733,51.729336 13.378586 0 0 132.86161,-106.5 a 70.513733,51.729336 13.378586 0 0 -18.78516,-2.5293 z m 3.85352,16.052738 a 43.57143,31.964285 13.378586 0 1 11.60937,1.5625 43.57143,31.964285 13.378586 0 1 34.99219,41.179687 43.57143,31.964285 13.378586 0 1 -49.78515,21.015625 43.57143,31.964285 13.378586 0 1 -34.992195,-41.179688 43.57143,31.964285 13.378586 0 1 38.175785,-22.578124 z"
           id="ellipse4210"
           inkscape:connector-curvature="0" />
      </g>
      <g
         transform="translate(304.28571,137.85714)"
         id="g4247">
        <ellipse
           inkscape:transform-center-y="-37.597111"
           inkscape:transform-center-x="50.51751"
           transform="matrix(-0.89995161,0.43598979,-0.43598979,-0.89995161,0,0)"
           ry="31.964285"
           rx="43.57143"
           cy="-30.361494"
           cx="-180.75836"
           id="ellipse4232"
           style="fill:#e5ded6;fill-opacity:1;stroke:none;stroke-width:4;stroke-miterlimit:4;stroke-dasharray:none;stroke-opacity:1" />
        <g
           transform="matrix(0.80423548,0.59431077,-0.59431077,0.80423548,55.969411,-306.96821)"
           id="g4234"
           inkscape:transform-center-x="-12.308701"
           inkscape:transform-center-y="-4.634349">
          <ellipse
             inkscape:transform-center-y="7.2629048"
             inkscape:transform-center-x="-31.571765"
             transform="matrix(0.64876844,-0.76098588,0.76098588,0.64876844,0,0)"
             ry="16.444077"
             rx="22.415392"
             cy="282.28876"
             cx="46.401012"
             id="ellipse4236"
             style="fill:#e5ded6;fill-opacity:1;stroke:#7f7b72;stroke-width:4;stroke-miterlimit:4;stroke-dasharray:none;stroke-opacity:1" />
          <ellipse
             style="fill:#7f7b72;fill-opacity:1;stroke:#7f7b72;stroke-width:2.02990174;stroke-miterlimit:4;stroke-dasharray:none;stroke-opacity:1"
             id="ellipse4238"
             cx="44.312859"
             cy="283.96811"
             rx="11.375261"
             ry="8.344965"
             transform="matrix(0.64876844,-0.76098588,0.76098588,0.64876844,0,0)"
             inkscape:transform-center-x="-16.021901"
             inkscape:transform-center-y="3.6857484" />
        </g>
        <path
           inkscape:connector-curvature="0"
           id="path4240"
           d="m 213.24207,-19.076565 a 51.729336,70.513733 64.151708 0 0 24.75318,-67.37617 51.729336,70.513733 64.151708 0 0 -86.01326,-15.811575 51.729336,70.513733 64.151708 0 0 -40.90458,77.296435 51.729336,70.513733 64.151708 0 0 86.01326,15.8115905 51.729336,70.513733 64.151708 0 0 16.1514,-9.9202805 z m -13.13676,-9.99829 a 31.964285,43.57143 64.151708 0 1 -9.98129,6.1313 31.964285,43.57143 64.151708 0 1 -53.14836,-9.77095 31.964285,43.57143 64.151708 0 1 25.27583,-47.76348 31.964285,43.57143 64.151708 0 1 53.14837,9.77094 31.964285,43.57143 64.151708 0 1 -15.29455,41.63219 z"
           style="fill:#9cc0c0;fill-opacity:1;stroke:none;stroke-width:4;stroke-miterlimit:4;stroke-dasharray:none;stroke-opacity:1" />
      </g>
      <path
         sodipodi:nodetypes="sssas"
         inkscape:connector-curvature="0"
         id="path4254"
         d="m 286.78572,125.21934 c 15.40775,-12.83699 68.26177,53.93829 125.03749,54.41858 60.51948,0.51197 112.38672,-31.42452 128.53393,-22.63286 19.24313,10.47729 -126.83051,85.65347 -190.06563,63.97497 -36.23159,-12.42105 -72.53831,-88.23524 -63.50579,-95.76069 z"
         style="fill:#d8533f;fill-opacity:1;fill-rule:evenodd;stroke:none;stroke-width:1px;stroke-linecap:butt;stroke-linejoin:miter;stroke-opacity:1" />
      <path
         sodipodi:nodetypes="scaacsaaas"
         inkscape:connector-curvature="0"
         id="path4256"
         d="M 613.1626,280.85819 C 597.99135,309.76057 611.40227,191.06776 601.04076,163.42796 596.49508,155.85182 559.80289,70.020699 522.75394,37.158896 510.80774,26.562814 492.5133,25.947864 479.31738,16.955845 c -36.21409,-24.6771566 -86.62057,-78.53936 -95.20687,-90.66119 -1.03179,-7.772012 -14.75563,-24.140004 -9.59645,-33.587575 6.00194,-10.99085 57.44269,-21.80726 86.62058,-17.67766 43.47002,6.1524 86.4776,29.243311 116.67262,61.114222 35.38981,37.354014 56.74705,89.489345 64.14468,140.411203 9.88729,68.059495 2.40722,144.871555 -28.78934,204.303345 z"
         style="fill:#9cc0c0;fill-opacity:1;fill-rule:evenodd;stroke:none;stroke-width:1px;stroke-linecap:butt;stroke-linejoin:miter;stroke-opacity:1" />
      <path
         id="path4344"
         d="m 378.43164,172.46094 c -43.05522,-16.94984 -79.32846,-57.50497 -91.64648,-47.24219 -9.03252,7.52545 27.27427,83.34067 63.50586,95.76172 7.88337,2.70261 17.05569,3.89735 27.0332,3.90234 0.005,-14.0503 0.095,-27.73999 0.5,-40.30469 0.13662,-4.23831 0.43186,-8.00476 0.60742,-12.11718 z"
         style="fill:#d8533f;fill-opacity:1;fill-rule:evenodd;stroke:none;stroke-width:1px;stroke-linecap:butt;stroke-linejoin:miter;stroke-opacity:1"
         inkscape:connector-curvature="0" />
      <path
         id="path4339"
         d="m 378.43164,172.46094 c -0.17556,4.11242 -0.4708,7.87887 -0.60742,12.11718 -0.40503,12.5647 -0.49478,26.25439 -0.5,40.30469 70.05534,0.0351 179.87734,-58.70584 163.0332,-67.87695 -16.14721,-8.79166 -68.01567,23.14478 -128.53515,22.63281 -11.38529,-0.0963 -22.59109,-2.9262 -33.39063,-7.17773 z"
         style="fill:#9cc0c0;fill-opacity:1;fill-rule:evenodd;stroke:none;stroke-width:1px;stroke-linecap:butt;stroke-linejoin:miter;stroke-opacity:1"
         inkscape:connector-curvature="0" />
    </g>
  </g>
</svg>
