<?xml version="1.0" encoding="UTF-8" standalone="no"?>
<!-- Created with Inkscape (http://www.inkscape.org/) -->

<svg
   xmlns:dc="http://purl.org/dc/elements/1.1/"
   xmlns:cc="http://creativecommons.org/ns#"
   xmlns:rdf="http://www.w3.org/1999/02/22-rdf-syntax-ns#"
   xmlns:svg="http://www.w3.org/2000/svg"
   xmlns="http://www.w3.org/2000/svg"
   xmlns:sodipodi="http://sodipodi.sourceforge.net/DTD/sodipodi-0.dtd"
   xmlns:inkscape="http://www.inkscape.org/namespaces/inkscape"
   width="95.241562mm"
   height="151.2567mm"
   viewBox="0 0 337.4701 535.94893"
   id="svg10091"
   version="1.1"
   inkscape:version="0.91 r13725"
   sodipodi:docname="smile-fire.svg">
  <defs
     id="defs10093" />
  <sodipodi:namedview
     id="base"
     pagecolor="#ffffff"
     bordercolor="#666666"
     borderopacity="1.0"
     inkscape:pageopacity="0.0"
     inkscape:pageshadow="2"
     inkscape:zoom="0.35"
     inkscape:cx="1752.3065"
     inkscape:cy="1050.8316"
     inkscape:document-units="px"
     inkscape:current-layer="layer1"
     showgrid="false"
     fit-margin-top="0"
     fit-margin-left="0"
     fit-margin-right="0"
     fit-margin-bottom="0"
     inkscape:window-width="2238"
     inkscape:window-height="1776"
     inkscape:window-x="0"
     inkscape:window-y="22"
     inkscape:window-maximized="0" />
  <metadata
     id="metadata10096">
    <rdf:RDF>
      <cc:Work
         rdf:about="">
        <dc:format>image/svg+xml</dc:format>
        <dc:type
           rdf:resource="http://purl.org/dc/dcmitype/StillImage" />
        <dc:title></dc:title>
      </cc:Work>
    </rdf:RDF>
  </metadata>
  <g
     inkscape:label="Layer 1"
     inkscape:groupmode="layer"
     id="layer1"
     transform="translate(1865.8779,-1047.2449)">
    <g
       style="display:inline"
       id="g4737"
       transform="translate(-1031.323,516.01426)">
      <path
         sodipodi:nodetypes="cccscccc"
         inkscape:connector-curvature="0"
         id="path4721"
         d="m -704.15754,1034.1997 c -9.73904,-1.8211 -54.12516,25.7508 -51.43656,29.2741 -9.3111,-4.4129 26.79664,-43.2555 34.34518,-47.9822 -2.62864,4.0294 -62.00878,-10.8749 -61.11418,-16.16245 1.1651,-6.88646 38.65566,-18.77646 36.36545,-19.19286 -22.30135,-2.4227 -45.56175,-7.7224 -71.21575,-20.203 16.7614,-10.8991 48.3447,-13.7617 71.1142,-14.6473 z"
         style="fill:#d45c5e;fill-opacity:1;fill-rule:evenodd;stroke:#bd848f;stroke-width:4;stroke-linecap:butt;stroke-linejoin:miter;stroke-miterlimit:4;stroke-dasharray:none;stroke-opacity:1" />
      <path
         sodipodi:nodetypes="cccscscc"
         inkscape:connector-curvature="0"
         id="path4729"
         d="m -542.47222,932.23522 c 3.14907,-0.7429 48.36572,-59.7844 42.93148,-60.3566 -1.89483,2.6509 -49.28669,29.0002 -51.01271,27.2742 -6.18215,1.0762 33.60725,-79.93004 32.07235,-78.53941 -5.18255,4.69543 -46.45973,47.66839 -53.53809,49.49747 0,0 15.3008,-71.94436 12.37437,-69.44798 -4.42926,3.77837 -39.64031,57.99882 -34.59772,57.57862 z"
         style="fill:#d45c5e;fill-opacity:1;fill-rule:evenodd;stroke:#bd848f;stroke-width:4;stroke-linecap:butt;stroke-linejoin:miter;stroke-miterlimit:4;stroke-dasharray:none;stroke-opacity:1" />
      <path
         sodipodi:nodetypes="ssazs"
         inkscape:connector-curvature="0"
         id="path4735"
         d="m -728.47823,876.76497 c -69.4736,-85.12718 -120.7241,-319.94995 -99.0467,-342.81725 11.454,-12.08274 27.7131,120.35321 56.6899,174.05021 27.8143,51.54263 111.36671,93.08987 109.77455,137.19344 -1.59216,44.1036 -50.73462,52.0157 -67.41775,31.5736 z"
         style="fill:#d45c5e;fill-opacity:1;fill-rule:evenodd;stroke:#be858f;stroke-width:4;stroke-linecap:butt;stroke-linejoin:miter;stroke-miterlimit:4;stroke-dasharray:none;stroke-opacity:1" />
      <path
         style="fill:#e0c59a;fill-opacity:1;stroke:#bd848f;stroke-width:4;stroke-miterlimit:4;stroke-dasharray:none;stroke-opacity:1"
         d="m -572.41507,879.27478 c 36.03851,51.5337 64.98894,119.4028 24.19765,154.34462 -39.63351,33.95 -113.84497,48.8787 -156.22226,1.5469 -41.95181,-46.85672 -52.48446,-114.83802 -24.1975,-154.34452 34.14922,-47.69424 115.47967,-59.80718 156.22211,-1.547 z"
         id="path4705"
         inkscape:connector-curvature="0"
         sodipodi:nodetypes="sssss" />
      <ellipse
         style="fill:#85685d;fill-opacity:1;stroke:none;stroke-width:4;stroke-miterlimit:4;stroke-dasharray:none;stroke-opacity:1"
         id="ellipse4707"
         cx="-1016.2394"
         cy="546.5835"
         rx="10.178572"
         ry="15.714285"
         transform="matrix(0.907414,-0.42023783,0.42023783,0.907414,0,0)" />
      <ellipse
         transform="matrix(0.98416421,-0.17725914,0.17725914,0.98416421,0,0)"
         ry="15.714285"
         rx="10.178572"
         cy="769.56299"
         cx="-782.92987"
         id="ellipse4709"
         style="fill:#85685d;fill-opacity:1;stroke:none;stroke-width:4;stroke-miterlimit:4;stroke-dasharray:none;stroke-opacity:1" />
      <path
         sodipodi:nodetypes="ccssccssc"
         inkscape:connector-curvature="0"
         id="path4717"
         d="m -586.48444,938.85818 -1.62556,1.9155 c 8.93957,32.8456 -1.6588,59.0618 -20.47405,73.10992 -9.40763,7.0241 -20.68419,10.1036 -32.33008,7.6719 -11.64589,-2.4317 -23.69077,-8.3891 -34.57422,-23.57032 l -0.8125,0.582 c 10.99073,15.33092 23.24533,23.47412 35.18359,25.96682 11.93827,2.4927 23.52993,-0.6798 33.13282,-7.8496 19.20576,-14.3396 30.53573,-44.62722 21.5,-77.82622 z"
         style="color:#000000;font-style:normal;font-variant:normal;font-weight:normal;font-stretch:normal;font-size:medium;line-height:normal;font-family:sans-serif;text-indent:0;text-align:start;text-decoration:none;text-decoration-line:none;text-decoration-style:solid;text-decoration-color:#000000;letter-spacing:normal;word-spacing:normal;text-transform:none;direction:ltr;block-progression:tb;writing-mode:lr-tb;baseline-shift:baseline;text-anchor:start;white-space:normal;clip-rule:nonzero;display:inline;overflow:visible;visibility:visible;opacity:1;isolation:auto;mix-blend-mode:normal;color-interpolation:sRGB;color-interpolation-filters:linearRGB;solid-color:#000000;solid-opacity:1;fill:#85685d;fill-opacity:1;fill-rule:evenodd;stroke:none;stroke-width:1px;stroke-linecap:butt;stroke-linejoin:miter;stroke-miterlimit:4;stroke-dasharray:none;stroke-dashoffset:0;stroke-opacity:1;color-rendering:auto;image-rendering:auto;shape-rendering:auto;text-rendering:auto;enable-background:accumulate" />
    </g>
  </g>
</svg>
