<?xml version="1.0" encoding="UTF-8" standalone="no"?>
<!-- Generator: Adobe Illustrator 14.0.0, SVG Export Plug-In . SVG Version: 6.00 Build 43363)  -->

<svg
   xmlns:dc="http://purl.org/dc/elements/1.1/"
   xmlns:cc="http://creativecommons.org/ns#"
   xmlns:rdf="http://www.w3.org/1999/02/22-rdf-syntax-ns#"
   xmlns:svg="http://www.w3.org/2000/svg"
   xmlns="http://www.w3.org/2000/svg"
   xmlns:sodipodi="http://sodipodi.sourceforge.net/DTD/sodipodi-0.dtd"
   xmlns:inkscape="http://www.inkscape.org/namespaces/inkscape"
   enable-background="new 0 0 432 357"
   xml:space="preserve"
   version="1.1"
   y="0px"
   x="0px"
   viewBox="0 0 432 357"
   id="svg5511"
   inkscape:version="0.91 r13725"
   sodipodi:docname="bee.svg"
   inkscape:export-filename="/home/ale/docs/src/coderdojo-workshops/lua-love/resources/bee.png"
   inkscape:export-xdpi="6.52"
   inkscape:export-ydpi="6.52"><defs
     id="defs5598" /><sodipodi:namedview
     pagecolor="#ffffff"
     bordercolor="#666666"
     borderopacity="1"
     objecttolerance="10"
     gridtolerance="10"
     guidetolerance="10"
     inkscape:pageopacity="0"
     inkscape:pageshadow="2"
     inkscape:window-width="1364"
     inkscape:window-height="632"
     id="namedview5596"
     showgrid="false"
     inkscape:zoom="0.66106443"
     inkscape:cx="-32.084746"
     inkscape:cy="178.5"
     inkscape:window-x="0"
     inkscape:window-y="90"
     inkscape:window-maximized="0"
     inkscape:current-layer="svg5511" /><g
     id="Art"><g
       id="Outline"><g
         id="Black"><path
           d="m64.241 37.691s-28.448 41.38-18.965 143.1c3.724 5.71 25.224 27.71 70.724 25.21-3 9-13.5 69.5 59.5 86 5.5 6 9.5-5.5 12.5 53 3.5-13.5 5.5-25.5 5.5-25.5s12.5-18.5 18.5-23.5c8-2.5 28-11 47.5-5.5 8-2.5 33-16 36-33.5s2.5-30.5 2.5-30.5l-16-23s26 10 51.5 3 34-10.5 37-19 13-81.5-7.5-112.5c-8.5 0.5-72 4-120.5 63-5.5-0.5-18-3-29-8-1-2.5-2.5-5-2.5-5s-5.5-4-10-9c-3.5-1-14.5 8-31.5 10.5-5.5-10.5-22-57.5-88-89-6.5-2-11.018-2.617-17.259 0.191z"
           id="path5516" /></g></g><g
       id="Wings"><g
         id="Left_x5F_Wing"><linearGradient
           id="SVGID_1_"
           y2="142.69"
           gradientUnits="userSpaceOnUse"
           x2="370.52"
           y1="142.69"
           x1="255"><stop
             style="stop-color:#AFE0ED"
             offset=".092"
             id="stop5521" /><stop
             style="stop-color:#E6D0E5"
             offset="1"
             id="stop5523" /></linearGradient><path
           d="m255 139.67s14.666-44 101.33-58.667c5.334 12 9.334 27.333 12.667 39.333 1.333 13.333 4 30-4 62-6 6-16.001 14.666-20.667 16s-34.666 13.334-58.666-0.666c2.666-2 3.999-2.666 4.666-6 0-7.334-0.666-15.334-3.333-26-1.333-6.667-1.333-14-1.333-14l-3.34-8.67s-11.33 3.33-27.33-3.33z"
           fill="url(#SVGID_1_)"
           id="path5525" /></g><g
         id="Right_x5F_Wing"><linearGradient
           id="SVGID_2_"
           y2="124.05"
           gradientUnits="userSpaceOnUse"
           x2="165"
           y1="124.05"
           x1="48.227"><stop
             style="stop-color:#E6D0E5"
             offset="0"
             id="stop5529" /><stop
             style="stop-color:#AFE0ED"
             offset=".9448"
             id="stop5531" /></linearGradient><path
           d="m165 127.67s-9.333 4-18 8.667c-3.333 0.667-6.667 0-6.667 0l-2 4.667v2.667s-5.334 4.667-8.667 10.667c-1.333 8-0.667 27.333 5.333 33.333-3.333 6-9.333 9.333-9.333 9.333s-38 6.666-70.667-19.333c-4-12-10-37.333-4.667-66s12.007-60.68 24.674-61.347c12.667 2 40.67 3.333 90 77.337z"
           fill="url(#SVGID_2_)"
           id="path5533" /></g><g
         id="Action_x5F_Lines"><path
           d="m28.333 41.667s17.333-28 54.667-34.667c-10-0.667-22.667 2-22.667 2s-16.667 6.667-22 14.667-10 18-10 18z"
           id="path5536" /><path
           d="m25 15.667s-15.333 12.667-12 26.667c-3.333-1.334-2.667-1.334-3.333-8.001 2.667-4.667 4-6 4-10 4-6.666 6.666-6.666 11.333-8.666z"
           id="path5538" /><path
           d="m387.67 41.667s6.666-10 15.333 21.333c0.667-8.667-2.667-24-6.667-25.333s-6.66 2-8.66 4z"
           id="path5540" /><path
           d="m404.33 27.667s13.333 8 16 18c-0.666 10.667-2 17.333-2 17.333s5.334-4 5.334-19.333c-7.33-10.667-9.99-13.334-19.33-16z"
           id="path5542" /></g></g><g
       id="Eyes"><g
         id="Left_x5F_Eye"><path
           d="m217 138.33s13.333 5.333 21.333 6.667 10.666 0 26 5.333c8-0.66 10.67-3.33 10.67-3.33s4.666 2 5.333 8.667 7.333 33.333 0 40.667c-4 2.667-6 4.667-8 6.667-6 2-12-1.333-18-4-6.666 0.667-20 5.334-25.333-1.333-4-9.334-6.667-16.667-12-23.333 5.333-6.667 4-10 4-10s1.33-10.02-4-26.02z"
           fill="#FFFFFF"
           id="path5546" /></g><g
         id="Right_x5F_Eye"><path
           d="m206.33 129s12 18.667 9.333 34c-5.334 13.333-10.667 24-21.333 28-11.333 4.667-14 10.667-23.333 8.667s-26-6.001-32.667-20.667c0-10-3.333-17.333 0.667-28.667 6-6.667 15.333-10.667 23.333-14s22-8 26-12c7.34-2 12-2 18 4.67z"
           fill="#FFFFFF"
           id="path5549" /></g><g
         id="Pupils"><path
           d="m239 163.67s-5.334 1.334-6.667 8.667c2 4.667 4.667 5.333 4.667 5.333l-4 2s1.333-0.666 3.333 2c6 1.333 14-1.333 16-3.333 0-5.333-0.666-9.333-2.666-11.333s-9.33-0.68-10.66-3.34z"
           id="path5552" /><path
           d="m164.33 149.67s4.667 3.333 8 2c2 2.667 2 3.334 4 8.667-1.333 6.667-2 8-8.667 8-4.667-2-6-3.333-8-3.333-1.333-4.667 0-8.667 0-8.667s2.67 0.66 4.67-6.67z"
           id="path5554" /></g></g><g
       id="Body"><g
         id="Spaces"><linearGradient
           id="SVGID_3_"
           y2="196.87"
           gradientUnits="userSpaceOnUse"
           x2="228.33"
           y1="196.87"
           x1="175"><stop
             style="stop-color:#FFF1E8"
             offset="0"
             id="stop5559" /><stop
             style="stop-color:#FFE474"
             offset=".1963"
             id="stop5561" /><stop
             style="stop-color:#FED500"
             offset=".6626"
             id="stop5563" /></linearGradient><path
           d="m211 185.67s5.333 2.666 10 13.333c2.667 2.667 7.333 4 7.333 4s-7.999 8.666-53.333 3.333c10.667-2 12.667-3.332 20.667-8.666s12.66-7.99 15.33-11.99z"
           fill="url(#SVGID_3_)"
           id="path5565" /><linearGradient
           id="SVGID_4_"
           y2="217.58"
           gradientUnits="userSpaceOnUse"
           x2="282.33"
           y1="217.58"
           x1="125.67"><stop
             style="stop-color:#FFF1E8"
             offset="0"
             id="stop5568" /><stop
             style="stop-color:#FFE474"
             offset=".1963"
             id="stop5570" /><stop
             style="stop-color:#FED500"
             offset=".6626"
             id="stop5572" /></linearGradient><path
           d="m278.33 205s0.666 4.001 4 8.667c-8.666 3.333-33.332 13.332-42.666 14.666s-46 3.333-67.333 0-42-8-46.667-12c0.667-4.666 1.333-9.332 5.333-10.666s28 9.332 56.667 10.666 56.67 0.66 90.67-11.34z"
           fill="url(#SVGID_4_)"
           id="path5574" /><linearGradient
           id="SVGID_5_"
           y2="246.5"
           gradientUnits="userSpaceOnUse"
           x2="294"
           y1="246.5"
           x1="125.67"><stop
             style="stop-color:#FFF1E8"
             offset="0"
             id="stop5577" /><stop
             style="stop-color:#FFE474"
             offset=".1963"
             id="stop5579" /><stop
             style="stop-color:#FED500"
             offset=".6626"
             id="stop5581" /></linearGradient><path
           d="m287.67 232.33l6 6.667s1.332 5.333-1.334 10c-8.666 4-32 4.667-44 10.667-13.333 1.333-92 2.666-114-5.334-5.34-8.67-8.67-11.34-8.67-21.34 11.33 5.33 95.33 26.67 162-0.67z"
           fill="url(#SVGID_5_)"
           id="path5583" /><linearGradient
           id="SVGID_6_"
           y2="278.02"
           gradientUnits="userSpaceOnUse"
           x2="281"
           y1="278.02"
           x1="145.65"><stop
             style="stop-color:#FFF1E8"
             offset="0"
             id="stop5586" /><stop
             style="stop-color:#FFE474"
             offset=".1963"
             id="stop5588" /><stop
             style="stop-color:#FED500"
             offset=".6626"
             id="stop5590" /></linearGradient><path
           d="m281 265.67s-19.333 25.999-37.333 16.666c-12 2-25.333 8.666-32 8s-24-1.999-29.333-0.666c-7.34-2.67-13.34-8.67-21.34-10.67s-14.667-5.333-15.333-8 26.667 2.667 45.333 4.667 24.667-1.333 40-2 29.33-1.34 50-8z"
           fill="url(#SVGID_6_)"
           id="path5592" /></g></g></g><metadata
     id="metadata5594"><rdf:RDF><cc:Work><dc:format>image/svg+xml</dc:format><dc:type
           rdf:resource="http://purl.org/dc/dcmitype/StillImage" /><cc:license
           rdf:resource="http://creativecommons.org/publicdomain/zero/1.0/" /><dc:publisher><cc:Agent
             rdf:about="http://openclipart.org/"><dc:title>Openclipart</dc:title></cc:Agent></dc:publisher><dc:title>Bee</dc:title><dc:date>2010-05-27T02:46:12</dc:date><dc:description>A bee, completed for the Spring 2010 Clip Art Package Release</dc:description><dc:source>https://openclipart.org/detail/63127/bee-by-pianobrad</dc:source><dc:creator><cc:Agent><dc:title>pianoBrad</dc:title></cc:Agent></dc:creator><dc:subject><rdf:Bag><rdf:li>animal</rdf:li><rdf:li>bee</rdf:li><rdf:li>bug</rdf:li><rdf:li>environment</rdf:li><rdf:li>hive</rdf:li><rdf:li>honey</rdf:li><rdf:li>spring</rdf:li><rdf:li>spring2010</rdf:li></rdf:Bag></dc:subject></cc:Work><cc:License
         rdf:about="http://creativecommons.org/licenses/publicdomain/"><cc:permits
           rdf:resource="http://creativecommons.org/ns#Reproduction" /><cc:permits
           rdf:resource="http://creativecommons.org/ns#Distribution" /><cc:permits
           rdf:resource="http://creativecommons.org/ns#DerivativeWorks" /></cc:License></rdf:RDF></metadata></svg>