<?xml version="1.0" encoding="UTF-8" standalone="no"?>
<!-- Created with Inkscape (http://www.inkscape.org/) -->

<svg
   xmlns:dc="http://purl.org/dc/elements/1.1/"
   xmlns:cc="http://creativecommons.org/ns#"
   xmlns:rdf="http://www.w3.org/1999/02/22-rdf-syntax-ns#"
   xmlns:svg="http://www.w3.org/2000/svg"
   xmlns="http://www.w3.org/2000/svg"
   xmlns:xlink="http://www.w3.org/1999/xlink"
   xmlns:sodipodi="http://sodipodi.sourceforge.net/DTD/sodipodi-0.dtd"
   xmlns:inkscape="http://www.inkscape.org/namespaces/inkscape"
   id="svg4688"
   sodipodi:docname="fire.svg"
   sodipodi:modified="true"
   viewBox="0 0 331.17 459.81"
   sodipodi:version="0.32"
   version="1.1"
   inkscape:output_extension="org.inkscape.output.svg.inkscape"
   inkscape:version="0.91 r13725"
   inkscape:export-filename="fire.png"
   inkscape:export-xdpi="8.21"
   inkscape:export-ydpi="8.21">
  <defs
     id="defs3">
    <linearGradient
       id="linearGradient14630"
       inkscape:collect="always">
      <stop
         id="stop14631"
         style="stop-color:#ffffff"
         offset="0" />
      <stop
         id="stop14632"
         style="stop-color:#ffffff;stop-opacity:0"
         offset="1" />
    </linearGradient>
    <linearGradient
       id="linearGradient17250">
      <stop
         id="stop17251"
         style="stop-color:#dc0000"
         offset="0" />
      <stop
         id="stop17252"
         style="stop-color:#ffb200"
         offset="1" />
    </linearGradient>
    <linearGradient
       id="linearGradient26051">
      <stop
         id="stop26052"
         style="stop-color:#ffffff;stop-opacity:.44928"
         offset="0" />
      <stop
         id="stop26053"
         style="stop-color:#ffffff;stop-opacity:0"
         offset="1" />
    </linearGradient>
    <linearGradient
       id="linearGradient4463"
       y2="403.09"
       xlink:href="#linearGradient14630"
       gradientUnits="userSpaceOnUse"
       x2="342.54"
       gradientTransform="matrix(0.68311,0,0,1.4639,22.742,-283.6)"
       y1="246.21"
       x1="198.88"
       inkscape:collect="always" />
    <linearGradient
       id="linearGradient4466"
       y2="179.97"
       xlink:href="#linearGradient26051"
       gradientUnits="userSpaceOnUse"
       x2="390.32"
       gradientTransform="matrix(0.54412,0,0,1.8378,0.3926,-250.42)"
       y1="179.97"
       x1="349.43"
       inkscape:collect="always" />
    <linearGradient
       id="linearGradient4470"
       y2="306.76"
       xlink:href="#linearGradient17250"
       gradientUnits="userSpaceOnUse"
       x2="-1102.7"
       gradientTransform="matrix(0.79621,0,0,1.7063,1125.5,-315.48)"
       y1="404.58"
       x1="-1131"
       inkscape:collect="always" />
    <linearGradient
       id="linearGradient4473"
       y2="294.87"
       xlink:href="#linearGradient26051"
       gradientUnits="userSpaceOnUse"
       x2="572.41"
       gradientTransform="matrix(0.60253,0,0,1.6597,0.3926,-252.45)"
       y1="294.87"
       x1="533.78"
       inkscape:collect="always" />
    <linearGradient
       id="linearGradient4476"
       y2="485.78"
       xlink:href="#linearGradient14630"
       gradientUnits="userSpaceOnUse"
       x2="317.14"
       gradientTransform="matrix(0.7951,0,0,1.2577,24.096,-278.86)"
       y1="384.4"
       x1="501.4"
       inkscape:collect="always" />
    <linearGradient
       id="linearGradient4479"
       y2="362.16"
       xlink:href="#linearGradient17250"
       gradientUnits="userSpaceOnUse"
       x2="-857.96"
       gradientTransform="matrix(0.92675,0,0,1.4659,1125.5,-315.48)"
       y1="438.47"
       x1="-916.9"
       inkscape:collect="always" />
    <linearGradient
       id="linearGradient4498"
       y2="500.8"
       gradientUnits="userSpaceOnUse"
       x2="323.1"
       gradientTransform="matrix(0.80596,0,0,1.2407,18.001,-263.96)"
       y1="256.78"
       x1="9.655"
       inkscape:collect="always">
      <stop
         id="stop29187"
         style="stop-color:#ffffff"
         offset="0" />
      <stop
         id="stop29188"
         style="stop-color:#ffffff;stop-opacity:0"
         offset="1" />
    </linearGradient>
    <linearGradient
       id="linearGradient4501"
       y2="232.9"
       xlink:href="#linearGradient26051"
       gradientUnits="userSpaceOnUse"
       x2="502.45"
       gradientTransform="matrix(0.60694,0,0,1.6476,0.3926,-250.42)"
       y1="232.9"
       x1="468.41"
       inkscape:collect="always" />
    <linearGradient
       id="linearGradient4504"
       y2="376.9"
       xlink:href="#linearGradient14630"
       gradientUnits="userSpaceOnUse"
       x2="239.46"
       gradientTransform="matrix(0.60192,0,0,1.6614,26.3,-269.45)"
       y1="244.05"
       x1="110.45"
       inkscape:collect="always" />
    <linearGradient
       id="linearGradient4512"
       y2="272.82"
       xlink:href="#linearGradient17250"
       gradientUnits="userSpaceOnUse"
       x2="-1335"
       gradientTransform="matrix(0.70158,0,0,1.9364,1125.5,-315.48)"
       y1="330.2"
       x1="-1308.2"
       inkscape:collect="always" />
    <linearGradient
       id="linearGradient4515"
       y2="299.89"
       xlink:href="#linearGradient17250"
       gradientUnits="userSpaceOnUse"
       x2="-953.88"
       gradientTransform="matrix(0.93941,0,0,1.4462,1125.5,-315.48)"
       y1="448.68"
       x1="-1006.6"
       inkscape:collect="always" />
  </defs>
  <sodipodi:namedview
     id="base"
     bordercolor="#666666"
     inkscape:pageshadow="2"
     inkscape:window-y="45"
     pagecolor="#ffffff"
     inkscape:window-maximized="0"
     inkscape:window-width="1364"
     inkscape:zoom="0.16979709"
     inkscape:window-x="0"
     showgrid="false"
     borderopacity="1.0"
     inkscape:current-layer="layer1"
     inkscape:cx="509.69642"
     inkscape:cy="265.53712"
     inkscape:window-height="647"
     inkscape:pageopacity="0.0" />
  <g
     id="layer1"
     inkscape:label="Layer 1"
     inkscape:groupmode="layer"
     transform="translate(-60.951 -15.829)">
    <path
       d="m 135.31,265.02 c 19.34,57.18 49.95,87.5 104.82,90.97 60.35,19.34 116.38,-20.22 100.49,-82.3 -7.22,13.28 -11.84,20.5 -24.25,24.25 4.91,-34.36 -26.57,-40.14 -11.27,-77.1 10.69,-22.81 17.04,-50.82 -1.73,-73.64 -7.79,25.99 -17.32,43.32 -36.38,62.38 2.02,-31.77 18.77,-57.47 8.66,-87.5 1.44,-20.21 -31.77,-19.64 -32.05,-81.435 -21.08,26.568 -30.04,47.07 -26.86,87.495 -7.8,32.64 -26.86,44.47 -23.39,79.71 -2.89,-19.64 -4.91,-36.68 -0.87,-51.12 -2.31,-17.9 -4.62,-33.21 -22.52,-45.91 5.49,22.23 11.84,55.73 -6.93,64.1 -5.2,10.69 -31.19,47.36 -2.6,104.83 -8.37,-4.91 -16.75,-6.35 -25.12,-14.73 z"
       inkscape:connector-curvature="0"
       style="fill:url(#linearGradient4515);fill-rule:evenodd;stroke:#ffff00;stroke-width:2.15630007;stroke-opacity:0.50382002"
       id="path15991" />
    <path
       d="m 237.31,53.087 c -14.99,19.685 -21.35,44.824 -19.44,69.333 1.43,11.99 -4.94,23.15 -9.48,33.86 -8.34,15.96 -15.89,33.39 -13.61,51.83 -0.65,10.63 -5.37,-0.08 -4.88,-5.43 -2.26,-15.03 -3.23,-30.63 -0.14,-45.52 -1.56,-14.49 -5.23,-30.2 -17.2,-39.73 3.56,17.2 8.18,36.59 -0.4,53.03 -3.08,5.51 -9.96,7.01 -11.4,13.63 -14.45,25.3 -15.53,56.84 -4.57,83.63 2.28,6.1 5.26,11.92 7.84,17.9 -8.04,-4.6 -16.88,-7.72 -24.65,-12.75 10.77,31.54 31.26,62.58 63.6,74.86 12.71,5.41 26.58,6.42 40.02,8.55 29.45,9.2 66,3.16 85.43,-22.47 11.41,-14.83 14.58,-34.84 10.7,-52.91 -5.15,10.4 -14.06,18.83 -25.57,21.5 2.65,-13.35 -1.38,-26.72 -8.28,-38.14 -7.44,-12.18 -9.2,-27.59 -3.25,-40.76 9.01,-19.76 15.83,-43.68 5.33,-64.25 -3.25,-9.5 -5.54,-3.67 -7.19,3.06 -6.86,21.12 -20.73,39.09 -36.42,54.5 1.09,-21.55 8.61,-41.94 11.8,-63.12 1.83,-10.79 -0.27,-21.62 -2.53,-32.07 -1.54,-11.74 -13.77,-17.77 -18.94,-27.821 -9.2,-13.374 -12.26,-29.996 -12.8,-45.962 -1.32,1.75 -2.64,3.5 -3.97,5.25 z"
       inkscape:connector-curvature="0"
       style="fill:url(#linearGradient4498);fill-rule:evenodd"
       id="path29198" />
    <path
       d="m 234.07,347.32 c -45.92,-48.51 -53.72,-82.3 -23.39,-114.35 34.07,-60.64 25.7,-98.76 0.86,-135.15 23.39,80.57 -27.72,132.55 -44.18,155.94 -9.82,-30.32 -1.44,-43.32 12.13,-80.57 -26.57,28.88 -42.74,63.82 -32.92,97.03 17.9,49.96 60.06,60.93 87.5,77.1 z"
       inkscape:connector-curvature="0"
       style="fill:url(#linearGradient4512);fill-rule:evenodd;stroke:#ffff00;stroke-width:2.15630007;stroke-opacity:0.50382002"
       id="path15990" />
    <path
       d="m 289.79,164.02 c -6.16,-17.9 -1.13,-21.73 4.26,-29.55 5.56,-2.17 3.85,-9.72 6.89,-26.54 4.59,18.77 16.93,27.31 -11.15,56.09 z"
       inkscape:connector-curvature="0"
       style="fill:#ffd700;fill-rule:evenodd;stroke:#ffff00;stroke-width:2.15630007;stroke-opacity:0.50382002"
       id="path15994" />
    <path
       d="m 296.71,104.99 c -1.88,7.98 -1.03,16.77 -4.5,24.22 -8.15,6.22 -11.7,17.77 -8.13,27.58 1.11,8.22 3.68,9.64 8.24,2.13 9.73,-10.01 18.84,-24.36 13.3,-38.71 -2.5,-7.32 -4.69,-14.75 -7.48,-21.973 -0.48,2.253 -0.96,4.503 -1.43,6.753 z"
       inkscape:connector-curvature="0"
       style="fill:url(#linearGradient4501);fill-rule:evenodd"
       id="path28563" />
    <path
       d="m 329.36,273.69 c 15.88,-15.31 12.71,-21.95 11.26,-32.92 -4.62,-5.2 1.16,-12.13 6.93,-31.19 -14.72,17.04 -32.05,19.35 -18.19,64.11 z"
       inkscape:connector-curvature="0"
       style="fill:#ffd700;fill-rule:evenodd;stroke:#ffff00;stroke-width:2.15630007;stroke-opacity:0.50382002"
       id="path15993" />
    <path
       d="m 254.86,347.32 c 17.9,-10.1 22.81,-41.87 25.12,-77.1 4.33,-34.08 13,-68.15 70.17,-73.64 -23.39,18.77 -42.45,41.87 -33.78,84.9 -2.31,62.67 -48.81,60.36 -61.51,65.84 z"
       inkscape:connector-curvature="0"
       style="fill:url(#linearGradient4479);fill-rule:evenodd;stroke:#ffff00;stroke-width:2.15630007;stroke-opacity:0.50382002"
       id="path15992" />
    <path
       d="m 343.56,191.6 c -24.38,3.46 -49.51,18.11 -56.66,42.99 -11.49,31.1 -5.14,66.49 -20.8,96.36 -5.95,2.58 -4.5,13.67 2.85,11.5 21.51,-3.9 41.94,-18.85 47.39,-40.78 5.25,-15.24 2.27,-31.35 1.71,-47 0.72,-22.69 13.86,-43.16 31.11,-57.16 3.02,-4.35 -2.02,-5.81 -5.6,-5.91 z"
       inkscape:connector-curvature="0"
       style="fill:url(#linearGradient4476);fill-rule:evenodd"
       id="path26056" />
    <path
       d="m 343.86,203.49 c -9.82,10.4 -24.08,20.13 -23.73,36.12 -0.73,11.46 3.35,22.38 5.89,33.38 8.53,-8.14 18.22,-18.74 15.1,-31.58 -0.03,-5.65 -4.29,-10.6 -0.94,-16.11 3.21,-8.73 6.57,-17.41 8.81,-26.47 -1.71,1.55 -3.42,3.1 -5.13,4.66 z"
       inkscape:connector-curvature="0"
       style="fill:url(#linearGradient4473);fill-rule:evenodd"
       id="path28562" />
    <path
       d="m 223.67,323.93 c -2.31,-27.72 -5.49,-47.65 29.46,-72.77 59.19,-41.29 30.03,-65.26 -6.93,-108.29 10.97,42.74 -6.65,76.81 -21.66,99.63 -9.82,14.15 -43.9,43.02 -0.87,81.43 z"
       inkscape:connector-curvature="0"
       style="fill:url(#linearGradient4470);fill-rule:evenodd;stroke:#ffff00;stroke-width:2.15630007;stroke-opacity:0.50382002"
       id="path15989" />
    <path
       d="m 201.09,120.58 c 15.99,-18.41 11.88,-25.987 9.27,-38.663 -5.55,-5.843 0.13,-14.122 4.68,-36.476 -14.56,20.374 -33.35,23.763 -13.95,75.139 z"
       inkscape:connector-curvature="0"
       style="fill:#ffd700;fill-rule:evenodd;stroke:#ffff00;stroke-width:2.15630007;stroke-opacity:0.50382002"
       id="path15995" />
    <path
       d="m 211.21,41.518 c -9.31,12.174 -23.43,23.408 -22.69,40.281 -0.1,14.03 5.43,27.121 9.56,40.281 8.44,-9.63 17.42,-21.87 13.66,-35.445 0.03,-5.372 -3.73,-9.542 -3.84,-14.616 2.06,-11.975 6.31,-23.543 7.99,-35.626 -1.56,1.708 -3.12,3.417 -4.68,5.125 z"
       inkscape:connector-curvature="0"
       style="fill:url(#linearGradient4466);fill-rule:evenodd"
       id="path28564" />
    <path
       d="m 245.3,135.71 c 6.41,29.13 -0.19,59.83 -14.93,85.42 -9.15,17.6 -27.2,31.08 -28.92,52.01 -2.76,18.25 10.39,33.46 22.57,45.24 4.96,6.24 0.71,-8.51 1.38,-11.96 -1.98,-17.95 1.1,-38.09 15.58,-50.4 16.13,-15.69 39.13,-26.56 46.85,-49.11 5.23,-19.91 -8.7,-37.76 -20.84,-51.9 -7.32,-8.88 -15.04,-17.41 -22.72,-25.99 0.35,2.23 0.69,4.46 1.03,6.69 z"
       inkscape:connector-curvature="0"
       style="fill:url(#linearGradient4463);fill-rule:evenodd"
       id="path26055" />
    <path
       d="m 216.21,109.86 c 0.63,13.78 4.55,27.42 2.75,41.33 -1.58,32.46 -15.84,63 -35.54,88.41 -3.65,5.19 -7.54,10.21 -11.31,15.32 -5.03,-16.77 -2.76,-34.86 4.02,-50.77 3.57,-8.51 6.08,-17.34 7.39,-26.48 -18.82,17.17 -32.11,40.57 -36.78,65.63 -3.79,23.17 4.36,46.99 19.73,64.4 19.32,22.8 47.11,35.61 74.05,47.06 -15.26,-21.46 -36.51,-40.83 -41.02,-67.96 -3.1,-15.75 3.1,-31.55 13.45,-43.33 11.84,-16.27 19.21,-35.61 23.59,-55.15 5.69,-25.43 1.13,-52.94 -12.77,-74.99 -3.43,-2.51 -9.56,-15.687 -7.56,-3.47 z"
       inkscape:connector-curvature="0"
       style="fill:url(#linearGradient4504);fill-rule:evenodd"
       id="path26054" />
  </g>
  <metadata
     id="metadata122">
    <rdf:RDF>
      <cc:Work>
        <dc:format>image/svg+xml</dc:format>
        <dc:type
           rdf:resource="http://purl.org/dc/dcmitype/StillImage" />
        <cc:license
           rdf:resource="http://creativecommons.org/publicdomain/zero/1.0/" />
        <dc:publisher>
          <cc:Agent
             rdf:about="http://openclipart.org/">
            <dc:title>Openclipart</dc:title>
          </cc:Agent>
        </dc:publisher>
        <dc:title></dc:title>
      </cc:Work>
      <cc:License
         rdf:about="http://creativecommons.org/publicdomain/zero/1.0/">
        <cc:permits
           rdf:resource="http://creativecommons.org/ns#Reproduction" />
        <cc:permits
           rdf:resource="http://creativecommons.org/ns#Distribution" />
        <cc:permits
           rdf:resource="http://creativecommons.org/ns#DerivativeWorks" />
      </cc:License>
    </rdf:RDF>
  </metadata>
</svg>
