<?xml version="1.0" encoding="UTF-8" standalone="no"?>
<svg
   xmlns:dc="http://purl.org/dc/elements/1.1/"
   xmlns:cc="http://creativecommons.org/ns#"
   xmlns:rdf="http://www.w3.org/1999/02/22-rdf-syntax-ns#"
   xmlns:svg="http://www.w3.org/2000/svg"
   xmlns="http://www.w3.org/2000/svg"
   xmlns:sodipodi="http://sodipodi.sourceforge.net/DTD/sodipodi-0.dtd"
   xmlns:inkscape="http://www.inkscape.org/namespaces/inkscape"
   width="412.9321"
   height="418.03381"
   id="svg2"
   version="1.1"
   inkscape:version="0.91 r13725"
   sodipodi:docname="head.svg"
   inkscape:export-filename="/home/ale/docs/src/coderdojo-workshops/lua-love/resources/head.png"
   inkscape:export-xdpi="11.99"
   inkscape:export-ydpi="11.99">
  <metadata
     id="metadata142">
    <rdf:RDF>
      <cc:Work
         rdf:about="">
        <dc:format>image/svg+xml</dc:format>
        <dc:type
           rdf:resource="http://purl.org/dc/dcmitype/StillImage" />
        <dc:title>Even Smaller Boy</dc:title>
      </cc:Work>
    </rdf:RDF>
  </metadata>
  <defs
     id="defs140" />
  <sodipodi:namedview
     pagecolor="#ffffff"
     bordercolor="#666666"
     borderopacity="1"
     objecttolerance="10"
     gridtolerance="10"
     guidetolerance="10"
     inkscape:pageopacity="0"
     inkscape:pageshadow="2"
     inkscape:window-width="1364"
     inkscape:window-height="707"
     id="namedview138"
     showgrid="false"
     inkscape:zoom="0.24583333"
     inkscape:cx="766.24559"
     inkscape:cy="-332.34201"
     inkscape:window-x="0"
     inkscape:window-y="30"
     inkscape:window-maximized="0"
     inkscape:current-layer="svg_1"
     fit-margin-top="0"
     fit-margin-left="0"
     fit-margin-right="0"
     fit-margin-bottom="0" />
  <title
     id="title4">Even Smaller Boy</title>
  <g
     id="g6"
     transform="translate(-43.882552,-22.372807)">
    <title
       id="title8">Layer 1</title>
    <g
       id="svg_1">
      <path
         style="fill:#000000;fill-opacity:1;stroke:#000000;stroke-width:10.64101887px;stroke-linecap:butt;stroke-linejoin:miter;stroke-opacity:1"
         d="m 242.86429,34.429657 c -50.6221,7.492874 -63.31087,-4.48221 -135.82069,51.65012 -35.678588,37.190683 -61.644377,79.615893 -57.389034,139.646673 9.134464,24.6613 19.809215,44.91276 41.128709,57.38893 -9.555954,16.35003 -10.192181,31.15265 -4.782393,43.99827 16.659688,9.65715 20.950148,19.26003 40.172398,42.08523 16.70927,16.86144 34.22237,20.66082 43.04175,3.82598 111.11458,112.4047 246.2137,48.42227 263.98952,-6.69533 13.18774,-38.47122 0.78957,-74.71666 -8.60847,-100.43079 7.34528,-23.08611 66.92488,-54.10851 -19.12968,-164.51526 C 375.81797,74.67016 312.06145,29.07765 242.86429,34.429657 Z"
         id="path3119"
         inkscape:connector-curvature="0"
         sodipodi:nodetypes="ccccccccccc" />
      <path
         id="svg_2"
         d="m 174.43741,73.813121 c 0.53684,-11.372982 43.73833,-18.52761 72.94982,-19.115388 5.1799,-0.103217 31.92176,-0.535456 15.63128,2.38975 -6.9468,0 -13.89588,0 -20.84267,0 -22.09291,6.021944 -52.71702,4.220292 -67.73843,16.725638 z"
         inkscape:connector-curvature="0" />
      <path
         id="svg_3"
         d="m 268.22729,59.477232 c -29.45926,6.43306 -63.58274,8.588675 -85.97571,21.505135 10.08117,-14.668418 52.89951,-19.968795 85.97571,-21.505135 z"
         inkscape:connector-curvature="0" />
      <path
         id="svg_4"
         d="m 276.04407,66.64615 c 17.1504,-2.155285 40.36917,10.739736 59.92425,14.336217 -17.41343,2.3943 -40.96052,-10.199371 -59.92425,-14.336217 z"
         inkscape:connector-curvature="0" />
      <path
         id="svg_5"
         d="m 190.06868,90.538757 c 2.68363,-6.6698 30.54065,-19.483309 44.29038,-21.505134 11.82177,-1.737349 35.63481,1.92148 13.02817,2.389749 -23.19799,2.621607 -37.91707,13.016805 -57.31855,19.115385 z"
         inkscape:connector-curvature="0" />
      <path
         id="svg_6"
         d="m 197.88545,97.707997 c 17.12441,-16.15442 43.64707,-23.689323 80.76432,-21.505137 -4.45833,5.467607 -19.88631,0.877139 -28.65944,2.38975 -20.50363,3.496127 -34.66806,12.806367 -52.10487,19.115387 l 0,0 z"
         inkscape:connector-curvature="0" />
      <path
         id="svg_7"
         d="m 104.09297,109.65447 c 8.03337,-14.933733 29.36833,-17.669653 41.685,-28.674703 -1.1986,11.68115 -29.28716,19.311523 -41.685,28.674703 z"
         inkscape:connector-curvature="0" />
      <path
         id="svg_8"
         d="m 200.49114,102.4875 c 13.12202,-10.266273 27.883,-19.031933 54.71026,-16.725643 7.25173,3.92381 -17.74954,2.50665 -26.05342,4.7795 -12.41571,3.39578 -20.51175,12.175733 -28.65684,11.946143 z"
         inkscape:connector-curvature="0" />
      <path
         id="svg_9"
         d="m 158.80613,88.149007 c -14.99543,8.55068 -34.10789,13.322713 -44.2907,26.284963 -1.26875,-13.94198 25.67087,-22.626133 44.2907,-26.284963 z"
         inkscape:connector-curvature="0" />
      <path
         id="svg_10"
         d="m 208.30532,104.87725 c 10.27926,-9.687913 30.59813,-10.168203 52.10749,-9.558993 -7.11859,3.07819 -38.81595,4.19172 -52.10749,9.558993 z"
         inkscape:connector-curvature="0" />
      <path
         id="svg_11"
         d="m 166.62031,97.707997 c 5.00552,3.976743 -7.25919,12.319273 -15.63094,11.946473 1.68312,-7.2173 11.83476,-6.66752 15.63094,-11.946473 z"
         inkscape:connector-curvature="0" />
      <path
         id="svg_12"
         d="m 150.98937,114.43397 c -8.74195,9.50639 -16.8091,19.62912 -31.26513,23.89487 8.26523,-9.9438 18.36978,-18.20027 31.26513,-23.89487 z"
         inkscape:connector-curvature="0" />
      <path
         id="svg_13"
         d="m 216.12242,135.9391 c 5.27374,-5.72838 12.24652,5.05682 26.05342,7.16924 17.46571,2.67162 64.56768,-2.27251 36.47652,2.38975 -26.52785,5.592 -43.59479,0.36339 -62.52994,-9.55898 z"
         inkscape:connector-curvature="0" />
      <path
         id="svg_14"
         d="m 302.09781,133.54936 c -7.50665,10.18281 -90.24603,0.62122 -28.65944,0 12.37674,-0.1244 20.97809,0.0979 28.65944,0 z"
         inkscape:connector-curvature="0" />
      <path
         id="svg_15"
         d="m 362.01686,138.32884 c -12.39233,6.5097 -29.19851,-3.42696 -46.89607,0 2.66285,-6.39507 33.85751,0.20293 46.89607,0 z"
         inkscape:connector-curvature="0" />
      <path
         id="svg_16"
         d="m 419.33574,143.10834 c 10.2325,3.35747 20.77188,6.43566 23.44544,16.72564 -9.21087,-4.29433 -18.11421,-8.87542 -23.44544,-16.72564 z"
         inkscape:connector-curvature="0"
         style="fill:#9c7d0d" />
      <path
         id="svg_17"
         d="m 296.88641,147.88525 c 13.13501,-6.39962 34.90545,-0.20527 49.5021,0 -15.57638,5.85015 -37.86543,0.0404 -49.5021,0 z"
         inkscape:connector-curvature="0" />
      <path
         id="svg_18"
         d="m 354.20269,155.05448 c 14.52132,-3.40779 30.2906,-5.67089 46.89381,-7.16924 -11.72044,5.68292 -30.32209,13.38018 -46.89381,7.16924 z"
         inkscape:connector-curvature="0" />
      <path
         id="svg_19"
         d="m 408.91327,150.27498 c 6.58438,8.53607 -8.61952,17.50501 -18.23697,19.11571 5.47443,-6.92536 15.91281,-9.30114 18.23697,-19.11571 z"
         inkscape:connector-curvature="0" />
      <path
         id="svg_20"
         d="m 252.59603,169.3907 c -5.76638,8.866 -20.88164,0.85309 -28.65943,-2.38975 3.83028,-3.35292 21.13688,1.20673 28.65943,2.38975 z"
         inkscape:connector-curvature="0" />
      <path
         id="svg_21"
         d="m 377.65073,174.17019 c -34.17025,11.73571 -78.95065,-11.33239 -122.45193,0 39.12121,-16.19307 84.75893,3.41235 122.45193,0 z"
         inkscape:connector-curvature="0" />
      <path
         id="svg_22"
         d="m 44.171313,202.8423 c 5.331225,-3.17594 1.407094,22.51117 2.605698,31.06412 -5.333821,3.17335 -1.407093,-22.51376 -2.605698,-31.06412 z"
         inkscape:connector-curvature="0"
         style="fill:#9c7d0d" />
      <path
         id="svg_23"
         d="m 294.28104,210.01154 c -6.54801,1.72273 -25.04802,-1.08755 -36.47361,2.38942 0,-2.38942 0,-4.77917 0,-7.16892 10.8732,-5.68552 29.44855,-0.72902 36.47361,4.7795 z"
         inkscape:connector-curvature="0" />
      <path
         id="svg_24"
         d="m 432.36131,224.34743 c -10.16204,-2.07183 -24.26378,-4.21543 -33.86824,0 0.87289,-14.508 31.47362,-10.91153 33.86824,0 z"
         inkscape:connector-curvature="0" />
      <path
         id="svg_25"
         d="m 276.04407,238.68331 c 4.56776,-5.56795 1.24537,16.22165 5.2114,19.11571 5.83912,-3.40553 4.97142,-12.96192 10.42247,-16.72564 6.7487,4.05273 -5.04708,11.11189 -2.6057,19.11539 10.73779,1.88283 4.89348,-11.43987 15.63128,-9.55899 -8.73676,5.73521 -4.17712,17.04583 0,23.89488 -19.42746,-27.00165 -44.3089,5.32668 -62.52768,4.7795 7.83268,-2.5164 5.11008,-13.00739 2.60602,-19.11539 5.35169,0.66666 5.20068,6.38273 7.81678,9.55867 7.48067,-4.72429 -0.90406,-14.91425 0,-21.50514 5.33902,3.86406 6.56881,11.49962 10.41988,16.72824 6.2223,-4.32779 1.46716,-18.70947 0,-23.89488 9.47163,-0.72189 3.47859,12.73948 7.81677,16.72564 8.10124,-0.5329 4.40118,-11.89353 5.2088,-19.11799 z"
         inkscape:connector-curvature="0" />
      <path
         id="svg_26"
         d="m 164.01493,317.53525 c 10.3913,11.24374 -21.34276,4.22971 -26.05373,9.55899 -1.72241,10.44326 7.16274,23.5578 15.63094,16.72564 8.78644,5.9216 -7.50145,8.86113 -15.63094,7.16925 -8.69519,-8.09897 -7.57192,-17.84891 -2.6057,-28.67471 -8.3094,-11.55905 -29.78238,-8.01973 -39.07931,-7.16891 17.77551,-27.43193 44.22803,13.34673 67.73874,2.38974 z"
         inkscape:connector-curvature="0" />
      <path
         id="svg_27"
         d="m 362.01686,315.14551 c -1.72988,6.37558 -7.82716,8.74876 -13.02557,11.94873 -7.11859,0 -16.71752,-9.94153 -23.44804,-2.38975 -5.90959,-14.98147 31.4944,-0.29422 36.47361,-9.55898 z"
         inkscape:connector-curvature="0" />
      <path
         id="svg_28"
         d="m 307.30661,329.484 c 7.18612,3.11132 5.2088,12.91419 2.60538,19.11539 10.46956,17.06985 51.83372,10.67252 54.71057,-7.16925 -1.59998,11.82437 5.91218,15.28964 7.81678,23.89488 -5.68519,0.43255 -8.29089,-1.9546 -7.81678,-7.16925 -27.76804,15.0961 -76.85317,-16.00634 -80.76432,21.50514 -10.10975,-23.23047 30.18669,-29.58008 23.44837,-50.17692 z"
         inkscape:connector-curvature="0" />
      <path
         id="svg_30"
         d="m 317.72908,365.32502 c 4.836,6.71526 19.36511,4.54308 31.26481,4.7795 -2.92362,10.85891 -23.64613,5.3913 -33.87051,9.55898 7.60862,-3.86666 2.85835,-5.88328 2.6057,-14.33848 z"
         inkscape:connector-curvature="0" />
      <path
         id="svg_93"
         d="m 242.17356,37.971776 c 3.08241,-6.435337 13.58314,0.0097 18.23924,0 -11.45417,-10.385773 -28.39868,-2.284531 -39.07932,-4.779499 -9.41123,-2.198477 16.53048,-3.221398 31.26514,-2.389749 2.45697,-4.420982 -14.91198,-1.467163 -5.2114,-4.779169 1.9231,-11.012199 11.90523,6.827299 23.44804,2.389419 -0.80733,3.24284 -6.52172,1.983497 -10.42247,2.38975 32.52902,16.360311 83.99546,15.356543 114.63515,33.451596 -28.36522,-5.44618 -88.14367,-26.690878 -132.8744,-26.282359 z"
         inkscape:connector-curvature="0"
         style="fill:#9c7d0d" />
      <path
         id="svg_94"
         d="m 283.85824,30.805124 c -4.49178,-6.270689 38.11549,6.497683 28.65976,4.779499 -12.38226,0.998553 -18.79227,-3.477294 -28.65976,-4.779499 z"
         inkscape:connector-curvature="0"
         style="fill:#9c7d0d" />
      <path
         id="svg_95"
         d="M 208.30532,30.805124 C 182.98127,43.420552 148.51941,47.655135 130.14703,66.64615 139.82682,49.225249 176.83722,36.203579 208.30532,30.805124 Z"
         inkscape:connector-curvature="0"
         style="fill:#9c7d0d" />
      <path
         id="svg_96"
         d="M 278.64977,47.530763 C 318.82604,69.621401 379.02405,73.351993 416.73264,97.710597 372.60365,91.179457 324.46188,67.645044 278.64977,54.7 322.45045,79.839927 384.88655,87.888557 427.15284,114.43624 394.04026,97.806067 330.67639,88.232787 286.46654,73.815388 322.47643,97.340067 388.06833,93.731577 421.94144,119.21573 388.4382,105.3361 321.16059,101.73703 278.64977,88.151607 c 4.72396,6.81788 15.91509,7.70442 26.05373,9.55899 -8.99979,6.538283 -23.91436,-1.87114 -33.86823,-2.38975 50.63284,13.580873 129.31008,8.602963 166.74004,40.620513 -50.74748,-22.86254 -152.65387,-40.240573 -226.66169,-23.89487 42.09158,-4.71033 105.35381,0.6358 153.71154,4.77949 -40.804,6.9205 -106.05688,-9.39175 -151.10845,2.38975 53.41552,-0.0745 147.07487,-3.02072 195.39914,16.72564 -58.50969,-9.14299 -118.03256,-15.06005 -190.18774,-9.55866 54.32218,2.38715 122.77991,0.65697 174.55648,11.94841 -0.32572,5.27667 -11.05052,1.01579 -15.63127,2.38975 3.83288,7.3748 21.13168,5.0354 28.65652,2.38975 -3.71534,10.13247 -12.52482,15.59296 -20.84234,21.50514 11.57432,2.5953 24.87104,-13.78871 26.05373,-28.67438 6.58991,6.98058 0.88619,23.00608 0,31.06413 -7.82975,6.35935 -17.69205,10.85437 -26.05373,16.72596 -62.21431,-12.48878 -155.66063,17.37348 -177.15959,-33.4516 4.57556,2.17477 4.76586,8.37143 7.81709,11.94874 -0.503,-16.85229 10.35233,9.84313 23.44804,0 -9.02577,-0.0596 -22.63522,-11.29148 -28.65943,-21.50546 -3.86666,1.04463 1.02909,3.05676 0,7.16957 -4.58336,-0.57611 -5.93816,-4.11054 -5.21108,-9.55899 -7.70766,4.18685 1.50581,12.73006 0,19.11539 -10.33934,7.02116 -11.65517,12.86385 -15.63127,31.06412 -6.62628,30.30911 -37.7323,46.64539 -26.05374,86.02086 -3.87218,-2.02409 -3.77054,-7.69239 -5.2114,-11.94842 -8.49157,5.65175 2.40501,13.53541 2.6057,19.11539 -30.37405,-49.35987 14.24756,-104.12566 33.87051,-138.58816 -20.07628,23.00153 -36.93474,48.95882 -46.89607,81.24169 1.82664,13.64289 -4.43235,13.64289 -2.6057,0 6.32395,-35.61663 21.97081,-62.6829 41.68501,-86.02086 -29.52973,19.69861 -66.51936,101.39396 -36.47362,145.75708 -27.44783,-12.78754 -30.49907,-86.54207 -7.81709,-114.69296 -22.78071,12.33095 -26.94483,93.1112 0,112.30321 -16.57691,-3.93355 -25.13376,-35.86993 -23.44804,-64.51572 -5.82353,1.03005 -1.05537,11.77663 -2.60538,16.72564 -7.35337,-16.56295 5.31012,-55.4682 18.23664,-69.29522 -16.59281,7.23647 -29.55052,50.75819 -20.84267,81.24169 1.37852,3.67766 2.71806,0.14812 2.60603,-2.38975 0.0756,15.42343 10.87321,36.42425 26.05342,45.40034 -39.77229,-10.40494 -47.252963,-94.04124 -15.63127,-126.63942 -26.37166,14.10435 -35.736128,100.16093 0,119.47245 -46.265437,-12.63198 -27.19227,-106.98367 0,-133.80834 -28.737381,19.83955 -29.875906,64.99114 -33.870512,107.52598 3.358763,2.67422 26.866882,27.97911 20.842332,31.06185 -12.49624,-11.63797 -24.130631,-24.06472 -28.659108,-43.0106 4.583034,0.57611 5.938157,4.11055 5.211077,9.55899 C 88.993275,217.07558 96.411597,175.05901 114.51541,150.28247 89.673278,164.94342 91.763291,217.01583 83.250604,238.69048 73.85983,242.323 75.874175,217.5078 75.433829,205.2392 62.671299,242.44737 91.73471,261.95959 104.09294,284.09081 54.833423,255.37812 57.23875,174.16306 96.276169,135.94398 68.00512,148.40386 46.407108,230.47947 78.039197,262.58568 45.250068,243.1329 58.629925,162.86899 85.856292,138.33373 57.858664,156.29012 51.725011,202.20874 57.196857,243.46997 35.460511,195.29053 71.757144,143.54546 96.276169,114.44113 71.686998,134.10142 55.638767,161.59766 49.380092,198.07224 53.150301,141.78927 92.276699,97.234877 145.77795,78.599782 139.17277,72.70189 127.7105,82.619397 122.32991,85.769027 116.89964,79.072934 137.62768,75.995062 140.56655,69.043072 123.57788,71.779314 118.98934,85.890807 98.881878,85.769027 142.38022,67.511276 169.05421,33.833015 236.96475,37.971797 211.22113,42.251849 163.46255,47.009906 145.77796,66.646172 221.78195,22.366828 333.01092,47.291776 401.09649,83.372127 369.27378,72.725918 317.03349,60.122174 278.64976,47.530784 Z M 401.0965,147.88524 c -16.60321,1.49834 -32.37249,3.76144 -46.89381,7.16924 16.57172,6.21094 35.17336,-1.48632 46.89381,-7.16924 z m -10.42019,21.50545 c 9.61745,-1.6107 24.82136,-10.57964 18.23697,-19.11571 -2.32415,9.81457 -12.76253,12.19035 -18.23697,19.11571 z M 223.9366,167.00094 c 7.7778,3.24284 22.89306,11.25575 28.65943,2.38975 -7.52256,-1.18302 -24.82916,-5.74267 -28.65943,-2.38975 z M 273.43838,49.920501 c -38.9098,-9.659331 -91.6609,-0.815102 -117.23793,21.50286 29.89961,-18.434405 91.44495,-26.24404 117.23793,-21.50286 z m -31.26481,7.166971 c 6.94907,0 13.89554,0 20.84234,0 16.29048,-2.925237 -10.45138,-2.49269 -15.63127,-2.389749 -29.21183,0.58781 -72.41303,7.742405 -72.94983,19.115388 15.02401,-12.505336 45.64811,-10.703695 67.73875,-16.725639 z m -59.92198,23.894875 c 22.39297,-12.914184 56.51645,-15.072066 85.97572,-21.505136 -33.07621,1.53634 -75.89455,6.836716 -85.97572,21.505136 z m 153.71414,0 c -19.55508,-3.596472 -42.77385,-16.491503 -59.92425,-14.336218 18.96633,4.136835 42.51342,16.730508 59.92425,14.336218 z m -88.58108,-9.558986 c 22.60923,-0.46597 -1.20381,-4.127097 -13.02818,-2.389749 -13.74974,2.019218 -41.60674,14.835335 -44.29037,21.505135 19.40407,-6.09858 34.12316,-16.493768 57.31855,-19.115386 z M 229.148,90.538747 c 8.30129,-2.27251 33.30515,-0.85309 26.05342,-4.7795 -26.82726,-2.30596 -41.58824,6.4597 -54.71025,16.725963 8.14508,0.23187 16.24113,-8.548083 28.65683,-11.946473 z M 249.99034,78.59261 c 8.77053,-1.512632 24.19851,3.077867 28.65944,-2.38975 -37.11725,-2.184186 -63.6399,5.350707 -80.76432,21.505137 17.43681,-6.30902 31.60124,-15.61925 52.10487,-19.115387 z m -135.47489,35.84135 c 10.18281,-12.96225 29.29527,-17.734273 44.29071,-26.284963 -18.61984,3.65883 -45.55946,12.342983 -44.29071,26.284963 z m 31.26253,-33.451603 c -12.31926,11.00473 -33.65163,13.74097 -41.685,28.674383 12.39784,-9.36545 40.4864,-16.995823 41.685,-28.674383 z m -13.02557,26.282363 c 9.44792,-4.87497 21.43921,-7.417673 28.65943,-14.336223 -12.15007,2.39949 -22.30431,6.62693 -28.65943,14.336223 z m 127.6604,-11.946473 c -21.50676,-0.6092 -41.82822,-0.1312 -52.10749,9.558993 13.29153,-5.367283 44.9889,-6.480803 52.10749,-9.558993 z M 150.98937,109.65447 c 8.37175,0.37276 20.63646,-7.96972 15.63094,-11.946473 -3.79618,5.278953 -13.94782,4.729163 -15.63094,11.946473 z m -15.63127,28.67437 c 14.86521,-8.66758 28.10705,-18.82636 41.68501,-28.67437 -18.65393,5.19516 -28.75849,18.22885 -41.68501,28.67437 z m -15.63387,0 c 14.45604,-4.26348 22.52318,-14.38849 31.26513,-23.89487 -12.89535,5.6946 -22.9999,13.95108 -31.26513,23.89487 z M 88.462011,135.9391 c 2.477751,-7.37481 19.615159,-13.74585 15.630949,-19.11571 -5.315322,4.77494 -20.279574,13.1389 -15.630949,19.11571 z m 15.630949,-4.7795 c 3.34317,-6.49055 13.34348,-6.87763 15.63127,-14.33622 -7.62907,1.08528 -18.76824,11.30121 -15.63127,14.33622 z m 44.2907,11.94873 c 10.44585,-5.19775 31.4707,-24.69568 31.26513,-23.8952 -15.31854,3.47469 -23.2165,13.75298 -31.26513,23.8952 z m -13.02558,69.29263 c -1.41228,14.46513 1.19342,49.16664 2.6057,31.06412 4.13229,-53.05668 19.0157,-96.25368 49.50179,-119.47213 -30.85337,17.1033 -41.72138,52.5358 -52.10749,88.40801 z m 143.29168,-66.90547 c 28.09115,-4.66227 -19.00822,0.28443 -36.47621,-2.38975 -13.80721,-2.11243 -20.78,-12.8973 -26.05374,-7.16892 18.93776,9.92464 36.00469,15.15326 62.52995,9.55867 z m -5.2114,-11.94614 c -61.58659,0.62122 21.15279,10.18281 28.65944,0 -7.68136,0.0979 -16.2827,-0.1244 -28.65944,0 z m 41.68501,4.77949 c 17.69758,-3.42696 34.50375,6.5097 46.89641,0 -13.04149,0.20293 -44.23615,-6.39507 -46.89641,0 z M 72.830737,200.45255 c 5.310114,-22.22702 23.737379,-45.11132 26.053737,-62.12597 -11.251207,15.36596 -29.303067,49.3287 -26.053737,62.12597 z m 10.419878,31.06412 C 79.352458,194.47802 99.353402,166.65185 104.09296,145.4955 88.644515,164.20496 74.555753,206.19717 83.250615,231.51667 Z M 343.77989,159.83398 c -36.17356,-10.89009 -96.74956,3.98389 -122.449,-11.94873 23.64645,21.76363 94.25101,7.30791 122.449,11.94873 z m 2.60603,-11.94873 c -14.59698,-0.20527 -36.3671,-6.39962 -49.50179,0 11.63895,0.0404 33.928,5.85015 49.50179,0 z M 156.20044,257.79903 c 6.17814,-38.94324 29.08159,-75.26974 39.07931,-102.74681 -16.52462,29.4583 -41.02027,64.32218 -39.07931,102.74681 z M 356.80838,164.6112 c 11.15735,1.3717 31.65839,-1.08982 26.05114,-7.16924 -6.5714,8.41169 -23.95366,-0.81479 -26.05114,7.16924 z m -101.60699,9.55899 c 43.50127,-11.33239 88.27649,11.73571 122.45193,0 -37.6956,3.41235 -83.33332,-16.19307 -122.45193,0 z"
         inkscape:connector-curvature="0"
         style="fill:#9c7d0d" />
      <path
         id="svg_97"
         d="m 304.70059,42.751274 c 9.00272,-6.538278 23.91469,1.871138 33.87083,2.38975 8.78903,6.146316 -22.20235,-4.349219 -33.87083,-2.38975 z"
         inkscape:connector-curvature="0"
         style="fill:#9c7d0d" />
      <path
         id="svg_98"
         d="M 156.20044,71.423372 C 181.78006,49.105421 234.52857,40.26118 273.43837,49.917916 247.64539,45.179331 186.10005,52.988967 156.20044,71.423372 Z"
         inkscape:connector-curvature="0" />
      <path
         id="svg_99"
         d="m 122.32992,69.0359 c 3.04605,4.193998 -43.990966,15.662437 0,0 l 0,0 z"
         inkscape:connector-curvature="0"
         style="fill:#9c7d0d" />
      <path
         id="svg_100"
         d="m 161.40924,92.928507 c -7.22023,6.91855 -19.21118,9.461253 -28.65944,14.336223 6.35772,-7.709283 16.51196,-11.936723 28.65944,-14.336223 z"
         inkscape:connector-curvature="0" />
      <path
         id="svg_101"
         d="m 93.673088,95.318257 c 4.5262,9.289133 -18.546764,33.697763 -33.870512,40.620853 10.878399,-13.92023 26.444401,-23.53637 33.870512,-40.620853 z"
         inkscape:connector-curvature="0"
         style="fill:#9c7d0d" />
      <path
         id="svg_102"
         d="m 177.04311,109.65447 c -13.57796,9.84801 -26.8198,20.00679 -41.68501,28.67437 12.92652,-10.44552 23.03108,-23.47921 41.68501,-28.67437 z"
         inkscape:connector-curvature="0" />
      <path
         id="svg_103"
         d="m 104.09297,116.82339 c 3.98421,5.36759 -13.153198,11.7409 -15.630948,19.11571 -4.648625,-5.97681 10.315627,-14.34077 15.630948,-19.11571 z"
         inkscape:connector-curvature="0" />
      <path
         id="svg_104"
         d="m 119.72423,116.82339 c -2.28778,7.45859 -12.28809,7.84567 -15.63127,14.33622 -3.13698,-3.035 8.00219,-13.25094 15.63127,-14.33622 z"
         inkscape:connector-curvature="0" />
      <path
         id="svg_105"
         d="m 179.6488,119.21347 c 0.20814,-0.80053 -20.81668,18.69712 -31.26513,23.89487 8.04863,-10.14222 15.94659,-20.42051 31.26513,-23.89487 z"
         inkscape:connector-curvature="0" />
      <path
         id="svg_106"
         d="m 187.46297,123.99296 c -30.48609,23.21618 -45.36948,66.41544 -49.50178,119.47213 -1.41229,18.1048 -4.01799,-16.59899 -2.6057,-31.06412 10.3887,-35.8722 21.25671,-71.3047 52.10748,-88.40801 z"
         inkscape:connector-curvature="0" />
      <path
         id="svg_107"
         d="m 390.6763,126.38011 c -4.98474,-4.10079 21.50449,-0.22697 20.84267,7.16925 -9.19269,-0.32998 -11.64739,-6.83932 -20.84267,-7.16925 z"
         inkscape:connector-curvature="0"
         style="fill:#9c7d0d" />
      <path
         id="svg_108"
         d="m 414.12467,133.54936 c 5.46371,-1.72793 22.17116,6.67206 26.05082,14.33589 -8.9631,-4.51646 -19.95646,-7.18094 -26.05082,-14.33589 z"
         inkscape:connector-curvature="0"
         style="fill:#9c7d0d" />
      <path
         id="svg_109"
         d="m 98.884485,138.32884 c -2.316359,17.01498 -20.743624,39.89669 -26.053737,62.12598 -3.249331,-12.79955 14.80254,-46.76229 26.053737,-62.12598 z"
         inkscape:connector-curvature="0" />
      <path
         id="svg_110"
         d="m 104.09297,145.4955 c -4.739557,21.15636 -24.740501,48.98252 -20.842345,86.02117 -8.694861,-25.3195 5.393571,-67.31172 20.842345,-86.02117 z"
         inkscape:connector-curvature="0" />
      <path
         id="svg_111"
         d="m 221.33348,147.88525 c 25.69685,15.93262 86.27253,1.05867 122.44934,11.94873 -28.20092,-4.64083 -98.8058,9.81488 -122.44934,-11.94873 z"
         inkscape:connector-curvature="0" />
      <path
         id="svg_112"
         d="m 195.27975,155.05448 c -9.99772,27.47739 -32.90117,63.80131 -39.07931,102.74682 -1.94097,-38.42691 22.55468,-73.29079 39.07931,-102.74682 z"
         inkscape:connector-curvature="0" />
      <path
         id="svg_113"
         d="m 382.85953,157.44423 c 5.60726,6.07715 -14.89378,8.53867 -26.05114,7.16925 2.09749,-7.98629 19.47974,1.24018 26.05114,-7.16925 z"
         inkscape:connector-curvature="0" />
      <path
         id="svg_114"
         d="m 153.59474,281.69391 c 1.59998,7.20983 -6.39929,-13.62634 -10.42248,-16.72596 0.016,-55.66401 2.93921,5.80729 10.42248,16.72596 z"
         inkscape:connector-curvature="0"
         style="fill:#9c7d0d" />
      <path
         id="svg_125"
         d="m 276.04407,267.35802 c 27.53617,-5.68778 26.04595,31.24338 2.6057,28.67437 -12.13708,-2.44235 -14.41448,-23.92151 -2.6057,-28.67437 z"
         inkscape:connector-curvature="0" />
      <path
         id="svg_126"
         d="m 403.70187,298.41988 c -26.18656,-53.47788 63.22035,-5.54458 0,0 l 0,0 z"
         inkscape:connector-curvature="0" />
      <path
         id="svg_127"
         d="m 205.69994,162.22373 c 13.51528,29.56838 69.39816,18.48475 114.63484,21.50546 38.62306,2.57842 86.35858,16.23106 96.39786,-21.50546 52.17276,2.85348 31.63502,82.66339 7.81417,102.74682 0.39882,-7.59952 5.91251,-10.51242 5.2114,-19.11539 -6.97505,2.36344 -3.23343,14.55573 -13.02558,14.33589 -0.86214,-8.75591 2.89244,-13.27725 5.2088,-19.11539 -9.18229,1.13268 -8.56237,11.26289 -10.4202,19.11539 -6.55581,-1.95233 -3.63479,-12.59626 -7.81677,-16.72596 -5.2088,2.63849 3.17659,12.83073 0,21.50546 -9.69051,0.92257 -4.82561,-11.50644 -13.02558,-11.94874 -0.41925,7.37708 6.15477,13.50684 0,19.11571 -3.49677,-1.57271 -4.85159,-5.10683 -5.21139,-9.55899 -6.64675,2.66448 1.04505,18.47955 -5.21108,21.50514 18.5445,-1.31194 16.72823,-21.29958 41.68501,-16.72824 11.95198,10.35233 16.38921,59.65017 13.02817,81.24136 -17.25204,110.76201 -222.70118,107.13209 -265.741,16.72596 -5.75567,3.48411 -5.15652,12.79241 -13.02818,14.33589 -32.89337,-8.06292 -36.66131,-42.83816 -67.73842,-52.56698 -2.699552,-6.28726 -3.119106,-14.66323 -2.605698,-23.89488 6.735392,-7.56835 19.521308,-16.19047 33.867908,-9.55899 3.05384,-0.38478 2.19913,-4.35636 2.6057,-7.16925 13.95855,0.24879 41.33559,30.79427 62.52735,9.55899 -43.2431,-37.56668 8.30681,-95.89517 20.84267,-133.8038 z m 52.10749,43.00832 c 0,2.38975 0,4.7795 0,7.16892 11.42558,-3.4747 29.92559,-0.66443 36.47361,-2.38942 -7.02506,-5.50854 -25.60041,-10.46501 -36.47361,-4.7795 z m 140.68564,19.11539 c 9.60965,-4.21543 23.70621,-2.07183 33.86824,0 -2.39463,-10.91153 -32.99534,-14.508 -33.86824,0 z m -127.6604,33.45159 c -4.33817,-3.98615 1.65487,-17.44752 -7.81677,-16.72564 1.46684,5.18543 6.2223,19.56677 0,23.89456 -3.85367,-5.22861 -5.08085,-12.86385 -10.41988,-16.7279 -0.90406,6.59088 7.48067,16.78051 0,21.50513 -2.61609,-3.17594 -2.46476,-8.89197 -7.81677,-9.55898 2.50405,6.10832 5.22665,16.59932 -2.6057,19.1157 18.21845,0.54716 43.09989,-31.77887 62.52703,-4.77981 -4.17678,-6.84873 -8.73643,-18.15936 0,-23.89456 -10.73747,-1.88315 -4.89316,11.43955 -15.63095,9.55867 -2.4417,-8.00318 9.35409,-15.06233 2.6057,-19.11539 -5.44845,3.76372 -4.58075,13.32044 -10.42247,16.72564 -3.96603,-2.89374 -0.64368,-24.68368 -5.2114,-19.11539 -0.80499,7.22672 2.89504,18.58736 -5.2088,19.11798 z m 7.8171,38.23077 c 23.44025,2.5716 24.93047,-34.35956 -2.6057,-28.67438 -11.80878,4.75546 -9.53138,26.23463 2.6057,28.67438 z m 125.0521,2.39007 c 63.22035,-5.54458 -26.18656,-53.47788 0,0 l 0,0 z M 96.278786,315.14551 c 9.296934,-0.85086 30.769904,-4.39242 39.079314,7.16891 -4.96622,10.82353 -6.08917,20.57347 2.60569,28.67471 8.1295,1.69189 24.41739,-1.24765 15.63095,-7.16925 -8.4682,6.83216 -17.35335,-6.28238 -15.63095,-16.72564 4.71098,-5.32928 36.44244,1.68702 26.05374,-9.55899 -23.51331,10.957 -49.96583,-29.82167 -67.738744,-2.38974 z m 229.264464,9.55898 c 6.73052,-7.55178 16.32945,2.38975 23.44804,2.38975 5.1984,-3.1977 11.29568,-5.57316 13.02557,-11.94873 -4.97921,9.26478 -42.3832,-5.42249 -36.47361,9.55898 z m -41.68501,54.95674 c 3.91115,-37.50953 52.99628,-6.40936 80.76432,-21.50546 -0.47416,5.21204 2.13158,7.60179 7.81678,7.16925 -1.9046,-8.60524 -9.41676,-12.07051 -7.81678,-23.89488 -2.87685,17.84177 -44.24103,24.2391 -54.71057,7.16925 2.60342,-6.2012 4.58107,-16.00407 -2.60538,-19.11539 6.73832,20.59684 -33.55812,26.94644 -23.44837,50.17724 z m 31.26513,0 c 10.21919,-4.16542 30.94463,1.29992 33.87051,-9.55899 -11.8997,-0.23676 -26.42621,1.93576 -31.26481,-4.7795 0.25262,8.45748 5.00292,10.4741 -2.6057,14.33849 z"
         inkscape:connector-curvature="0"
         style="fill:#fff0d8" />
    </g>
  </g>
</svg>
